<svg width="40" height="88" viewBox="0 0 40 88" fill="none" xmlns="http://www.w3.org/2000/svg">
<path fill-rule="evenodd" clip-rule="evenodd" d="M20.9811 0L24.219 4.32966C35.8817 19.9249 39.5144 42.7807 39.5144 61.2021C39.5144 66.5595 37.9236 71.8219 35.4424 76.1438C32.9912 80.4135 29.4357 84.1602 25.1667 85.9951C20.6293 87.9453 15.4729 87.5995 11.0721 83.8398C6.98409 80.3474 3.98936 74.2866 2.10041 65.7617C-4.07137 37.9084 9.73596 13.1573 17.4691 4.10915L20.9811 0ZM20.5391 14.5063C13.9311 24.6345 6.03126 43.4759 10.552 63.8782C12.2705 71.6336 14.6869 75.5219 16.6864 77.2301C18.3731 78.6711 19.9806 78.7775 21.7562 78.0143C23.8001 77.1358 26.1067 75.0036 27.9393 71.8114C29.742 68.6715 30.8566 64.8894 30.8566 61.2021C30.8566 45.5234 28.064 27.6608 20.5391 14.5063Z" fill="white"/>
</svg>
