<svg width="86" height="91" viewBox="0 0 86 91" fill="none" xmlns="http://www.w3.org/2000/svg">
<path fill-rule="evenodd" clip-rule="evenodd" d="M70.9205 49.0701C72.341 52.2272 72.0449 55.4675 71.5584 58.8056C69.9552 69.7568 62.4622 76.9869 50.9291 75.96C33.0321 74.3442 13.9794 58.974 10.1462 41.4453C9.29291 37.5655 7.71262 32.5309 10.3665 26.8859C12.8332 21.6357 17.7568 19.277 22.9943 18.4178C28.359 17.5266 34.0578 18.191 37.9446 19.054C54.9129 22.8397 75.8804 37.095 79.3622 57.9258C79.4411 58.3502 79.8188 58.6215 80.2156 58.5509C80.6124 58.4803 80.8855 58.1075 80.8201 57.7094C77.2349 36.2675 55.7115 21.5002 38.2481 17.603C33.4047 16.5331 25.8406 15.7628 19.428 17.7227C15.0497 19.0712 11.2024 21.6749 9.03521 26.2402C6.20276 32.2424 7.80773 37.6298 8.71047 41.7499C12.6658 59.847 32.3274 75.768 50.8026 77.4195C63.2035 78.5327 71.2884 70.8002 73.0093 59.0248C73.5494 55.4268 73.806 51.9077 72.2636 48.4809C72.0934 48.1032 71.6548 47.9298 71.2953 48.1141C70.9222 48.2722 70.7637 48.7188 70.9205 49.0701Z" fill="white" stroke="white"/>
<path d="M30.8428 52.6187H28.792V48.353H24.793V52.6187H22.7422V42.6655H24.793V46.6987H28.792V42.6655H30.8428V52.6187ZM35.915 52.7554C34.8304 52.7554 33.9463 52.4227 33.2627 51.7573C32.5837 51.092 32.2441 50.2056 32.2441 49.0981V48.9067C32.2441 48.1639 32.3877 47.5008 32.6748 46.9175C32.9619 46.3296 33.3675 45.8784 33.8916 45.564C34.4202 45.245 35.0218 45.0854 35.6963 45.0854C36.708 45.0854 37.5033 45.4045 38.082 46.0425C38.6654 46.6805 38.957 47.5851 38.957 48.7563V49.563H34.2471C34.3109 50.0461 34.5023 50.4334 34.8213 50.7251C35.1449 51.0168 35.5527 51.1626 36.0449 51.1626C36.806 51.1626 37.4007 50.8869 37.8291 50.3354L38.7998 51.4224C38.5036 51.8416 38.1025 52.1698 37.5967 52.4067C37.0908 52.6392 36.5303 52.7554 35.915 52.7554ZM35.6895 46.6851C35.2975 46.6851 34.9785 46.8172 34.7324 47.0815C34.4909 47.3459 34.3359 47.7241 34.2676 48.2163H37.0156V48.0591C37.0065 47.6216 36.888 47.2843 36.6602 47.0474C36.4323 46.8058 36.1087 46.6851 35.6895 46.6851ZM44.3711 52.6187C44.2799 52.4409 44.2139 52.2199 44.1729 51.9556C43.6943 52.4888 43.0723 52.7554 42.3066 52.7554C41.582 52.7554 40.9805 52.5457 40.502 52.1265C40.028 51.7072 39.791 51.1785 39.791 50.5405C39.791 49.7567 40.0804 49.1551 40.6592 48.7358C41.2425 48.3166 42.0833 48.1047 43.1816 48.1001H44.0908V47.6763C44.0908 47.3345 44.002 47.061 43.8242 46.856C43.651 46.6509 43.3753 46.5483 42.9971 46.5483C42.6644 46.5483 42.4023 46.6281 42.2109 46.7876C42.0241 46.9471 41.9307 47.1659 41.9307 47.4438H39.9551C39.9551 47.0155 40.0872 46.619 40.3516 46.2544C40.6159 45.8898 40.9896 45.605 41.4727 45.3999C41.9557 45.1903 42.498 45.0854 43.0996 45.0854C44.0111 45.0854 44.7334 45.3156 45.2666 45.7759C45.8044 46.2316 46.0732 46.8742 46.0732 47.7036V50.9097C46.0778 51.6115 46.1758 52.1424 46.3672 52.5024V52.6187H44.3711ZM42.7373 51.2446C43.029 51.2446 43.2979 51.1808 43.5439 51.0532C43.79 50.9211 43.9723 50.7456 44.0908 50.5269V49.2554H43.3525C42.3636 49.2554 41.8372 49.5972 41.7734 50.2808L41.7666 50.397C41.7666 50.6431 41.8532 50.8459 42.0264 51.0054C42.1995 51.1649 42.4365 51.2446 42.7373 51.2446ZM49.6758 52.6187H47.6934V42.1187H49.6758V52.6187ZM53.6748 43.4038V45.2222H54.9395V46.6714H53.6748V50.3628C53.6748 50.6362 53.7272 50.8322 53.832 50.9507C53.9368 51.0692 54.1374 51.1284 54.4336 51.1284C54.6523 51.1284 54.846 51.1125 55.0146 51.0806V52.5776C54.6273 52.6961 54.2285 52.7554 53.8184 52.7554C52.4329 52.7554 51.7266 52.0558 51.6992 50.6567V46.6714H50.6191V45.2222H51.6992V43.4038H53.6748ZM57.9678 46.0288C58.4919 45.3999 59.1504 45.0854 59.9434 45.0854C61.5475 45.0854 62.361 46.0174 62.3838 47.8813V52.6187H60.4082V47.936C60.4082 47.5122 60.3171 47.2 60.1348 46.9995C59.9525 46.7944 59.6494 46.6919 59.2256 46.6919C58.6468 46.6919 58.2275 46.9152 57.9678 47.3618V52.6187H55.9922V42.1187H57.9678V46.0288Z" fill="white"/>
</svg>
