<svg width="144" height="144" viewBox="0 0 144 144" fill="none" xmlns="http://www.w3.org/2000/svg">
<path d="M31 52.432C34.5101 59.4522 39.3892 64.8152 43.954 71.1356C46.2628 74.3325 45.9371 76.319 46.7249 79.864C47.5151 83.4196 49.6706 85.4421 52.1975 87.9689C54.7384 90.5099 57.723 92.1565 60.9258 93.58C64.2004 95.0354 66.4559 92.3844 69.6542 93.0951C73.5591 93.9629 74.8277 90.5615 78.3825 90.4627C81.5428 90.375 84.1173 88.1916 86.3489 85.96C91.8168 80.4922 80.1576 72.9725 77.2742 69.2653C74.3915 65.559 69.6845 56.2939 73.2564 52.2935C77.8478 47.151 62.7195 43.4404 60.3024 41.6947C54.1568 37.2563 49.3239 31.722 45.9629 25" stroke="white" stroke-width="3" stroke-linecap="round" stroke-linejoin="round"/>
<path d="M77.759 51.1851C72.0631 52.0519 78.2809 49.463 80.2528 47.9293C83.1147 45.7034 84.7845 42.6191 87.1455 39.9629C91.6408 34.9057 95.9756 29.8512 100.827 25" stroke="white" stroke-width="3" stroke-linecap="round" stroke-linejoin="round"/>
<path d="M112.673 38.716C107.468 45.5215 99.7422 50.6057 97.5711 59.29C95.5815 67.2485 93.6544 73.3206 87.7344 79.2406" stroke="white" stroke-width="3" stroke-linecap="round" stroke-linejoin="round"/>
<path d="M59.679 86.0986C62.3339 88.7535 64.7288 90.9199 67.7839 92.9566" stroke="white" stroke-width="3" stroke-linecap="round" stroke-linejoin="round"/>
<path d="M75.2652 90.4628C71.721 87.7525 68.9962 84.8 66.5369 81.111" stroke="white" stroke-width="3" stroke-linecap="round" stroke-linejoin="round"/>
<path d="M83.9937 87.3454C80.1729 84.2524 77.3455 80.8022 74.6418 76.7467" stroke="white" stroke-width="3" stroke-linecap="round" stroke-linejoin="round"/>
<path d="M45.9629 82.3578C45.9629 85.3057 45.0566 88.8521 45.3741 91.7097C45.5487 93.2811 46.9877 97.953 48.3182 94.2035C48.8903 92.5913 49.4997 97.65 49.7036 98.5677C49.9407 99.6344 52.4008 105.778 52.7863 102.308C52.905 101.24 52.9332 95.4252 55.0376 99.1911C55.7043 100.384 57.0894 105.396 58.1203 101.685C58.4103 100.641 58.5947 99.3869 59.6789 98.8448C60.8789 98.2448 62.1807 99.6335 63.2811 98.914C64.6995 97.9867 65.8318 93.3039 67.1604 91.7097" stroke="white" stroke-width="3" stroke-linecap="round" stroke-linejoin="round"/>
<path d="M47.8333 92.9566C48.1763 90.8127 48.3988 88.7661 49.0802 86.722" stroke="white" stroke-width="3" stroke-linecap="round" stroke-linejoin="round"/>
<path d="M53.4444 97.9442C53.0737 95.6276 52.7123 93.906 53.4444 91.7097" stroke="white" stroke-width="3" stroke-linecap="round" stroke-linejoin="round"/>
<path d="M59.679 98.5676C59.8868 97.3207 60.0946 96.0738 60.3024 94.8269" stroke="white" stroke-width="3" stroke-linecap="round" stroke-linejoin="round"/>
<path d="M50.9505 107.919C50.5104 110.285 50.1518 112.675 50.3617 115.089C50.4803 116.454 52.0874 119.637 52.7516 116.648C53.5257 113.164 51.4886 110.524 50.9505 107.296" stroke="white" stroke-width="3" stroke-linecap="round" stroke-linejoin="round"/>
<path d="M75.8887 92.9565C75.8887 95.4014 75.8331 97.8548 75.8887 100.299C75.9261 101.943 76.972 103.319 77.7244 101.061C78.7932 97.8552 77.0243 96.0292 76.5122 92.9565" stroke="white" stroke-width="3" stroke-linecap="round" stroke-linejoin="round"/>
<path d="M67.1602 29.9876C67.1391 30.1237 65.2543 42.2405 67.4373 39.859C69.6167 37.4815 66.9669 33.8154 66.5368 31.2345" stroke="white" stroke-width="3" stroke-linecap="round" stroke-linejoin="round"/>
<path d="M44.7161 51.1851C41.1176 52.7649 39.0687 56.6736 43.3306 59.1515C47.2168 61.4109 47.3702 55.6816 49.773 54.9951C52.6385 54.1764 56.9081 55.3567 56.9081 50.5616C56.9081 49.3547 55.8958 47.8582 54.6913 47.5829C52.9728 47.1901 52.4244 49.2964 53.7215 47.4097C58.3474 40.6811 43.93 36.0712 46.725 45.574C48.0303 50.0121 50.4151 40.4736 45.963 44.431C43.779 46.3723 41.7709 50.5616 45.963 50.5616" stroke="white" stroke-width="3" stroke-linecap="round" stroke-linejoin="round"/>
<path d="M74.0183 63.0307C73.7077 60.4426 73.8526 56.9678 77.1355 56.3112C79.8809 55.7622 78.7363 60.1137 77.7244 61.1257C75.6667 63.1834 76.0172 60.3905 77.7936 59.3246C79.9625 58.0233 82.3597 58.4527 82.8852 61.0218C83.0827 61.9873 82.8567 66.7697 80.6685 65.2474C79.1684 64.2039 83.1421 61.9781 84.5824 62.7882C86.1127 63.6491 86.2768 66.5724 85.4829 67.9837C84.416 69.8805 81.5088 69.8887 79.6294 69.8887" stroke="white" stroke-width="3" stroke-linecap="round" stroke-linejoin="round"/>
<path d="M43.4691 72.3825C40.2767 71.4248 37.6655 71.1121 36.2647 74.7378C35.3702 77.0531 37.7504 78.541 39.7284 78.6171C40.3238 78.64 45.6663 78.0548 43.3305 76.4003C41.6269 75.1936 40.1068 78.1793 39.8669 79.3791C38.9146 84.1406 42.2997 89.0607 45.3394 82.9813C46.4007 80.8587 45.3394 80.7465 45.3394 82.9813C45.3394 86.073 47.1438 84.2942 48.4567 82.9813" stroke="white" stroke-width="3" stroke-linecap="round" stroke-linejoin="round"/>
</svg>
