<svg width="144" height="144" viewBox="0 0 144 144" fill="none" xmlns="http://www.w3.org/2000/svg">
<path d="M40 55.5C52 50.5 58.2004 57 66 57C73.1044 57 78.1547 52.4619 81.3345 53.6985C89.3533 56.8169 90.976 63.0766 85.2097 69.773C78.5361 77.523 94.6798 72.0452 98.1267 72.4282C99.561 72.5875 106.882 75.3744 106.882 72.2129C106.882 68.6107 102.002 67.6066 102.002 63.3145C102.002 55.729 103.281 50.1765 95.5433 46.5223C89.0374 43.4501 81.769 44.8078 78.1053 37.4804C74.6814 30.6326 67.0067 28.0221 60.6673 32.6006C54.9868 36.7032 47.037 37.4804 40 37.4804" stroke="white" stroke-width="3" stroke-linecap="round" stroke-linejoin="round"/>
<path d="M68.4174 29.7302C67.7696 26.7069 67.519 18.3562 63.2506 19.1095C60.9582 19.514 53.0458 17.6377 58.0838 14.8038C60.9429 13.1955 65.6651 14.2982 68.4174 15.5214C72.1371 17.1746 74.9595 16.1823 78.7511 15.2344C90.1067 12.3955 84.7707 23.2201 76.1676 19.3965C66.4602 15.0821 68.4174 24.2648 68.4174 31.0219" stroke="white" stroke-width="3" stroke-linecap="round" stroke-linejoin="round"/>
<path d="M89.0847 76.2315C87.5698 85.8893 87.5368 97.5799 89.7306 107.232C90.4215 110.272 90.3764 113.248 90.3764 116.346C90.3764 117.941 92.0367 124.762 90.3764 121.441" stroke="white" stroke-width="3" stroke-linecap="round" stroke-linejoin="round"/>
<path d="M94.2515 73.6481C94.2515 87.0248 95.8826 100.482 97.8395 113.691C98.5274 118.334 98.1266 123.215 98.1266 127.9C98.1266 133.709 98.1266 130.268 98.1266 126.608" stroke="white" stroke-width="3" stroke-linecap="round" stroke-linejoin="round"/>
<path d="M100.71 72.3564C100.71 89.1982 104.585 139.575 104.585 122.733" stroke="white" stroke-width="3" stroke-linecap="round" stroke-linejoin="round"/>
</svg>
