<svg width="739" height="144" viewBox="0 0 739 144" fill="none" xmlns="http://www.w3.org/2000/svg">
<path d="M34.0265 50.5563C41.8165 52.6825 48.8525 53.4419 56.0918 49.5931C62.6797 46.0906 66.2723 41.512 69.6158 35.6944C70.9281 33.411 72.381 30.2089 72.4629 27.6442C72.4969 26.5816 71.6981 20.4083 72.542 20.0412C74.635 19.1308 83.9362 33.5839 84.8796 35.6944C87.1555 40.7858 85.3308 47.618 83.1397 52.5517C80.3052 58.9344 75.7 63.4953 67.4804 64.1454C60.6945 64.6821 52.5493 66.1754 46.285 63.0789C40.2688 60.105 33.0818 54.9138 31.8911 48.6986" stroke="white" stroke-width="3" stroke-linecap="round" stroke-linejoin="round"/>
<path d="M52.5334 95.1422C57.4496 95.1422 62.1238 95.3882 66.9273 96.243C70.6856 96.9118 73.7472 98.81 77.4459 99.6145C84.1097 101.064 90.7373 101.925 97.3759 103.33C98.7388 103.618 108.593 103.442 105.601 106.289C103.232 108.543 98.4025 109.979 95.2406 111.243C87.9399 114.161 79.6135 116.482 71.7516 118.192C64.7476 119.715 58.279 124.866 51.1098 124.866C41.0753 124.866 35.353 120.588 26.9091 116.816C25.4854 116.18 17.5356 113.665 19.2376 111.999C22.2992 109.003 27.4707 106.923 31.1798 104.568C37.5883 100.5 46.1929 98.8291 53.2452 95.7614" stroke="white" stroke-width="3" stroke-linecap="round" stroke-linejoin="round"/>
<path d="M73.1748 96.9999C76.7896 94.5951 79.0657 93.4862 78.1573 89.5346C77.7267 87.6615 75.187 83.4607 77.5246 81.8628C82.5007 78.4613 89.8066 77.0474 95.2402 79.9362C101.446 83.2356 101.733 90.1124 96.6637 94.523C94.0324 96.8122 91.5103 96.2123 88.1223 96.3807C85.7172 96.5003 83.2093 101.014 81.7162 102.573" stroke="white" stroke-width="3" stroke-linecap="round" stroke-linejoin="round"/>
<path d="M84.2836 83.9354C81.9106 86.0589 84.0597 88.7397 85.1695 86.2807C86.3849 83.5875 83.4797 83.4639 82.7502 83.9354" stroke="white" stroke-width="3" stroke-linecap="round" stroke-linejoin="round"/>
<path d="M91.5752 86.1278C90.5958 87.6872 92.5577 89.5628 94.5882 87.6001C96.1193 86.1202 92.5012 85.9817 90.8887 86.1278" stroke="white" stroke-width="3" stroke-linecap="round" stroke-linejoin="round"/>
<path d="M85.9872 98.8577C88.569 98.9646 95.1115 102.833 97.2176 101.197C100.075 98.9774 101.281 95.8331 101.686 92.6652C102.026 90.002 103.179 87.2082 101.647 84.615C100.114 82.0228 95.7269 79.6462 93.1051 77.8721C88.8302 74.9794 78.5068 77.5955 75.4686 80.8995C73.1003 83.475 69.2675 85.8373 67.8762 88.9497C66.3785 92.3004 72.2441 92.8795 74.5986 93.9037" stroke="white" stroke-width="3" stroke-linecap="round" stroke-linejoin="round"/>
<path d="M82.7502 90.8028C86.2636 92.3272 86.5528 92.061 89.5322 91.7168" stroke="white" stroke-width="3" stroke-linecap="round" stroke-linejoin="round"/>
<path d="M59.6514 85.8535C62.6224 84.2533 64.7762 82.2481 67.481 80.4178C69.4718 79.0708 72.0835 78.0651 73.8475 76.5303C77.3425 73.4897 77.4886 66.225 83.1799 69.4434C91.7348 74.2812 102.325 77.9281 112.284 79.661C116.868 80.4586 120.306 81.5187 125.136 81.5187C128.884 81.5187 126.097 81.8211 124.424 82.7916C122.188 84.0884 120.59 86.046 118.73 87.7112C117.027 89.2351 114.556 91.3951 113.47 93.2844C112.419 95.1135 112.415 97.4182 111.612 99.3393C109.165 105.192 105.026 99.9919 100.935 97.6192" stroke="white" stroke-width="3" stroke-linecap="round" stroke-linejoin="round"/>
<path d="M60.3625 86.4728C63.6452 86.5408 65.4614 86.7542 67.4804 88.9498" stroke="white" stroke-width="3" stroke-linecap="round" stroke-linejoin="round"/>
<path d="M139 68.827C142.417 67.6656 154.069 68.2745 150.652 69.4359C147.751 70.4218 145.505 74.4781 143.796 76.8702C142.165 79.153 143.721 78.7618 146.082 78.899C150.244 79.141 154.562 80.0737 158.673 80.0958" stroke="white" stroke-width="3" stroke-linecap="round" stroke-linejoin="round"/>
<path d="M479 102.827C482.417 101.666 494.069 102.275 490.652 103.436C487.751 104.422 485.505 108.478 483.796 110.87C482.165 113.153 483.721 112.762 486.082 112.899C490.244 113.141 494.562 114.074 498.673 114.096" stroke="white" stroke-width="3" stroke-linecap="round" stroke-linejoin="round"/>
<path d="M174 45C181.467 45 203.888 53.6267 196.421 53.6267C190.082 53.6267 182.98 59.8439 178.04 63.2641C173.326 66.5277 176.633 66.7871 181.167 68.5614C189.161 71.6895 196.999 76.2215 205.037 78.9009" stroke="white" stroke-width="3" stroke-linecap="round" stroke-linejoin="round"/>
<path d="M266 84C273.467 84 295.888 92.6267 288.421 92.6267C282.082 92.6267 274.98 98.8439 270.04 102.264C265.326 105.528 268.633 105.787 273.167 107.561C281.161 110.69 288.999 115.222 297.037 117.901" stroke="white" stroke-width="3" stroke-linecap="round" stroke-linejoin="round"/>
<path d="M664 78.2196C671.263 76.4826 695.075 79.6573 687.813 81.3943C681.647 82.8689 676.187 90.5674 672.178 95.043C668.352 99.3137 671.629 98.7967 676.451 99.4676C684.954 100.65 693.631 103.235 702.072 103.971" stroke="white" stroke-width="3" stroke-linecap="round" stroke-linejoin="round"/>
<path d="M400.584 76.6188C393.84 79.8242 369.887 81.657 376.631 78.4516C382.357 75.7303 386.102 67.0668 389.096 61.8571C391.953 56.8858 388.854 58.0712 383.997 58.415C375.434 59.0212 366.41 58.2925 358 59.3229" stroke="white" stroke-width="3" stroke-linecap="round" stroke-linejoin="round"/>
<path d="M589.857 89.6714C582.997 86.723 565.803 69.9445 572.664 72.8929C578.489 75.396 587.468 72.4878 593.357 71.2961C598.977 70.159 596.041 68.6149 592.575 65.1944C586.466 59.1641 581.054 51.9056 574.727 46.2702" stroke="white" stroke-width="3" stroke-linecap="round" stroke-linejoin="round"/>
</svg>
