<svg width="326" height="440" viewBox="0 0 326 440" fill="none" xmlns="http://www.w3.org/2000/svg">
<path fill-rule="evenodd" clip-rule="evenodd" d="M121.818 7.6956C124.396 8.9191 127.024 10.5799 128.593 12.9333C129.779 14.7123 130.625 16.9452 130.15 19.3403C133.774 18.747 137.249 18.2358 139.452 18.2358C140.966 18.2358 142.495 18.6455 143.812 19.6297C145.095 20.5887 145.856 21.8528 146.297 23.0299C147.125 25.2347 147.074 27.7664 146.841 29.8438C146.357 34.1648 144.755 39.0978 143.483 42.2787L143.416 42.4464L138.282 52.7136L125.785 50.622C124.806 52.2513 123.558 53.6195 122.372 54.7069C120.261 56.6431 117.881 58.1145 116.068 59.0208C112.144 60.9831 108.037 62.3385 103.887 63.2001L104.017 96.4489L90.6711 94.2127L77.2448 96.43L77.1138 62.867C69.2577 61.2018 62.2846 58.3546 57.4511 55.1322C55.3288 53.7173 53.793 51.7414 53.2713 49.2519C52.9596 47.7648 53.059 46.3263 53.3786 45.0078H35.0231L30.8967 32.6285C30.1025 32.0039 29.4031 31.237 28.8712 30.3063C27.9652 28.7207 27.7404 26.9975 27.9787 25.3892C28.4233 22.3878 30.4319 19.8328 32.58 17.9532C37.0311 14.0585 44.3932 11.0001 52.6236 11.0001C54.0681 11.0001 55.3963 11.0659 56.6227 11.1868C56.3871 10.8154 56.1702 10.4354 55.9762 10.0473C55.0994 8.29381 55.1196 6.1853 56.3386 4.41408C57.2913 3.02996 58.6827 2.29769 59.6269 1.89727C61.619 1.05245 64.3076 0.598257 67.0812 0.335501C72.8064 -0.20689 80.6642 -0.0758898 88.7205 0.614653C96.794 1.30667 105.304 2.58089 112.338 4.41337C115.849 5.3278 119.115 6.4127 121.818 7.6956ZM65.2427 23.6085C65.0794 23.4919 64.9215 23.3778 64.7688 23.2675C64.4128 23.0103 64.0849 22.7734 63.7823 22.5716C61.7211 21.1975 58.9317 19.6829 52.6236 19.6829C46.3825 19.6829 41.0823 22.0512 38.2977 24.4877C37.6231 25.078 37.1659 25.6118 36.8844 26.0378C36.8788 26.0463 36.8732 26.0548 36.8678 26.0631C37.1194 26.1313 37.4971 26.2127 38.0316 26.2835C38.9794 26.4092 40.1901 26.4734 41.6475 26.4664C44.5621 26.4525 48.1509 26.1571 52.0048 25.6846C56.4315 25.1419 61.0787 24.3818 65.2427 23.6085ZM58.1086 33.6129C56.4225 33.8652 54.7291 34.0984 53.0614 34.3029C49.0465 34.7951 45.0831 35.1329 41.689 35.1491C41.4205 35.1504 41.1535 35.1497 40.8886 35.1468L41.2813 36.325H54.7185L58.1086 33.6129ZM63.7783 43.735C62.9964 44.6835 62.4156 45.5658 62.0706 46.3379C61.8944 46.7323 61.8148 47.0234 61.7833 47.217C61.768 47.3111 61.765 47.376 61.7654 47.4153C61.7657 47.442 61.7675 47.4582 61.7686 47.4657C61.7716 47.4709 61.7772 47.4799 61.7866 47.4929C61.8228 47.5428 61.9476 47.6944 62.2674 47.9076C67.0267 51.0805 75.1665 54.1723 84.4594 55.2941C84.9299 55.3509 85.4022 55.4025 85.876 55.4488L90.6711 55.719L99.1028 55.2235C103.635 54.5823 108.074 53.3102 112.185 51.2547C113.443 50.6257 115.111 49.5844 116.504 48.3072C117.959 46.9735 118.686 45.7776 118.868 44.895C118.925 44.6205 118.942 44.3281 118.869 43.989C117.66 44.4036 116.289 44.7073 114.841 44.9487C103.813 46.7866 93.6189 47.7212 85.1841 47.7212C76.9639 47.7212 69.7435 46.8445 65.1534 44.5495C64.7399 44.3427 64.2609 44.0773 63.7783 43.735ZM127.246 41.6941C127.279 41.8222 127.311 41.9503 127.339 42.0784L130.361 42.5843L127.246 41.6941ZM136.728 35.373C137.409 33.2063 137.989 30.87 138.212 28.8774C138.305 28.0553 138.318 27.4297 138.298 26.9756C136.749 27.1035 134.402 27.4413 131.393 27.9353C129.932 28.1752 128.324 28.4498 126.649 28.7361C124.124 29.1673 121.445 29.6251 118.874 30.0311C118.693 30.0597 118.511 30.0882 118.33 30.1165L136.728 35.373ZM95.7121 23.3275C96.5536 21.8931 97.9123 21.3066 98.297 21.1424C99.5742 20.5971 101.26 20.3511 102.576 20.1899C103.978 20.0183 105.641 19.8761 107.326 19.732L107.616 19.7072C109.437 19.5513 111.323 19.387 113.167 19.17C116.764 18.7468 119.545 18.1832 121.132 17.4693C120.711 17.0399 119.806 16.3518 118.095 15.5397C116.064 14.5756 113.366 13.6537 110.149 12.8158C103.73 11.1435 95.7335 9.93043 87.979 9.26575C80.2073 8.5996 72.9153 8.50449 67.9001 8.97962C67.3341 9.03324 66.8164 9.09253 66.3456 9.15559C66.6678 9.4418 67.0185 9.73925 67.3984 10.0473C69.3059 11.594 71.5087 13.0663 73.5732 14.4426L73.6155 14.4708C74.6002 15.1273 75.5828 15.7823 76.4119 16.3756C77.1894 16.932 78.1182 17.6321 78.8121 18.3794C79.1271 18.7186 79.7373 19.4225 80.089 20.4254C80.5322 21.6898 80.5666 23.5952 79.1616 25.1564C79.1239 25.1982 79.0859 25.2389 79.0477 25.2786C79.7691 25.5253 80.6381 26.0088 81.3228 26.9102C82.0645 27.8866 82.2899 28.958 82.2899 29.8129C82.2899 32.0954 80.9081 33.6275 80.1608 34.331C79.3066 35.1349 78.278 35.7876 77.389 36.2956C76.3046 36.9153 74.9398 37.5799 73.6974 38.1777C76.5925 38.7145 80.4336 39.0384 85.1841 39.0384C92.1238 39.0384 100.517 38.3542 109.754 36.9644C109.13 36.6875 108.469 36.4091 107.77 36.1296L87.6093 30.3694L89.7116 21.95C91.8167 22.4011 93.8155 22.8604 95.7121 23.3275ZM77.6223 33.658C77.6843 33.6449 77.6714 33.6533 77.5982 33.6634C77.6069 33.6613 77.615 33.6595 77.6223 33.658ZM85.8018 64.1612L85.8878 86.2022L90.6814 85.4106L95.294 86.1834L95.2087 64.3194C93.7219 64.4016 92.2421 64.4302 90.7758 64.4106L90.6815 64.4162L90.511 64.4066C88.9222 64.379 87.3497 64.295 85.8018 64.1612Z" fill="white"/>
<path d="M99.6553 22.5771C99.6553 26.5732 94.796 29.8127 88.8018 29.8127C82.8075 29.8127 77.9482 26.5732 77.9482 22.5771C77.9482 18.5809 82.8075 15.3414 88.8018 15.3414C94.796 15.3414 99.6553 18.5809 99.6553 22.5771Z" fill="white"/>
<path fill-rule="evenodd" clip-rule="evenodd" d="M64.7711 105.493C63.2879 106.687 61.7939 107.889 60.1611 109.114C56.4663 111.885 51.3689 113.501 46.0519 114.478C40.6373 115.474 34.5126 115.89 28.3859 115.951C16.1301 116.075 3.40761 114.783 -4.6072 113.55L-3.28691 104.968C4.37559 106.147 16.6162 107.387 28.2984 107.269C34.1407 107.21 39.7289 106.812 44.4819 105.939C49.3325 105.047 52.8577 103.738 54.9514 102.168C56.0941 101.311 57.4116 100.256 58.8344 99.1171C61.3272 97.1217 64.1433 94.8674 66.9092 92.9636C71.5245 89.7869 76.94 86.845 83.3864 85.5557C96.3232 82.9683 111.768 87.3021 131.578 104.917H209.536C213.153 104.917 220.503 104.917 227.431 105.379C230.894 105.61 234.375 105.964 237.286 106.521C238.739 106.799 240.157 107.148 241.406 107.601C242.534 108.011 243.933 108.646 245.043 109.715C245.084 109.737 245.307 109.873 245.861 110.097C246.656 110.42 247.71 110.766 249.155 111.229C249.298 111.275 249.443 111.321 249.591 111.368C252.349 112.249 256.012 113.42 260.11 115.241C268.834 119.118 279.445 125.901 289.013 139.296C297.96 151.821 301.211 154.023 301.908 154.487C301.927 154.5 302.255 154.715 302.372 154.795L302.379 154.8C302.539 154.91 303.028 155.247 303.478 155.787C304.779 157.349 304.601 159.086 304.557 159.52L304.554 159.549C304.538 159.709 304.517 159.871 304.494 160.048C304.408 160.715 304.293 161.608 304.293 163.526C304.293 168.025 303.699 172.082 303.243 175.198C303.113 176.09 302.994 176.906 302.903 177.632C302.418 181.506 302.895 182.037 303.021 182.164C305.501 184.643 308.48 189.874 310.823 196.436C313.227 203.166 315.146 211.801 315.146 221.412V308.67L315.062 309.091C314.501 311.896 314.034 315.968 314.316 319.165C314.442 320.602 314.693 321.516 314.916 322.003C318.189 322.203 320.37 324.378 321.642 326.347C322.981 328.419 323.844 331.003 324.433 333.456C325.626 338.427 326 344.223 326 348.036C326 349.937 325.466 352.691 323.735 355.095C321.844 357.721 318.732 359.613 314.423 359.613C308.802 359.613 266.559 362.011 245.939 363.224L245.812 363.231H245.684C238.994 363.231 228.596 363.049 219.113 362.5C214.378 362.226 209.807 361.857 206.016 361.363C202.462 360.9 198.909 360.254 196.71 359.155C195.141 358.37 193.538 357.764 191.844 357.143C191.71 357.094 191.575 357.045 191.438 356.995C189.936 356.446 188.252 355.83 186.761 355.085C185.098 354.253 183.292 353.083 181.929 351.233C180.507 349.303 179.839 347.007 179.839 344.418V344.277C179.839 340.748 179.839 336.01 180.325 332.122C180.566 330.192 180.968 328.09 181.748 326.357C182.459 324.776 184.235 321.988 187.798 321.988C187.753 321.988 187.73 321.988 187.73 321.985C187.727 321.972 188.264 321.877 189.273 321.242C190.352 320.563 191.676 319.441 192.964 317.785C195.504 314.519 197.928 309.138 197.928 301.004C197.928 295.244 198.293 287.24 198.673 278.88C198.896 273.99 199.124 268.979 199.288 264.224C199.513 257.688 199.622 251.591 199.457 246.713C199.375 244.272 199.226 242.215 199.007 240.603C198.772 238.878 198.504 238.059 198.387 237.825C197.894 236.838 197.443 235.85 196.995 234.866C195.503 231.589 194.03 228.356 191.06 225.386C187.509 221.835 181.463 218.517 169.709 218.517C157.18 218.517 145.899 219.421 136.985 221.968C128.057 224.519 122.171 228.515 119.325 234.207C116.661 239.535 110.585 242.701 104.19 244.33C97.5634 246.018 89.5152 246.354 81.345 245.153C65.6727 242.848 48.4239 234.661 39.9988 217.807C39.2353 217.778 38.198 217.805 36.8798 217.906C33.6846 218.149 29.4219 218.775 24.6763 219.625C15.2178 221.321 4.28511 223.829 -2.89411 225.624L-5 217.2C2.29214 215.377 13.4283 212.82 23.1443 211.079C27.986 210.211 32.587 209.525 36.2205 209.248C38.0215 209.111 39.7345 209.062 41.1825 209.181C41.9047 209.24 42.6919 209.351 43.4506 209.572C44.1423 209.773 45.2305 210.182 46.1547 211.106L46.7247 211.676L47.0521 212.413C53.4702 226.854 68.0973 234.428 82.6083 236.562C89.8139 237.622 96.6893 237.28 102.047 235.916C107.636 234.492 110.605 232.231 111.559 230.324C115.948 221.544 124.533 216.496 134.599 213.62C144.679 210.74 156.914 209.835 169.709 209.835C183.281 209.835 191.706 213.753 197.2 219.246C201.415 223.462 203.715 228.579 205.225 231.939C205.571 232.71 205.876 233.388 206.153 233.942C206.94 235.516 207.351 237.524 207.61 239.431C207.885 241.451 208.048 243.831 208.135 246.421C208.31 251.605 208.192 257.944 207.965 264.523C207.792 269.545 207.558 274.685 207.332 279.621C206.959 287.799 206.611 295.416 206.611 301.004C206.611 310.96 203.609 318.242 199.818 323.116C197.94 325.529 195.873 327.347 193.899 328.59C192.546 329.442 191.007 330.166 189.46 330.49C189.279 331.091 189.093 331.983 188.941 333.199C188.529 336.495 188.522 340.726 188.522 344.418C188.522 345.447 188.759 345.865 188.919 346.083C189.14 346.382 189.594 346.794 190.644 347.319C191.675 347.834 192.907 348.285 194.561 348.892L194.833 348.991C196.531 349.614 198.545 350.364 200.594 351.389C201.289 351.736 203.404 352.267 207.138 352.753C210.636 353.209 214.975 353.563 219.615 353.832C228.825 354.365 238.977 354.546 245.557 354.548C265.989 353.347 308.479 350.93 314.423 350.93C315.25 350.93 315.732 350.763 316.005 350.622C316.281 350.48 316.5 350.284 316.688 350.022C317.128 349.411 317.317 348.547 317.317 348.036C317.317 344.614 316.968 339.556 315.99 335.482C315.493 333.413 314.91 331.927 314.349 331.06C314.226 330.869 314.129 330.743 314.059 330.663C310.921 330.53 308.733 328.688 307.483 326.516C306.315 324.486 305.853 322.052 305.666 319.926C305.301 315.776 305.851 311.047 306.464 307.821V221.412C306.464 212.933 304.765 205.288 302.647 199.356C300.468 193.255 298.02 189.442 296.882 188.303C293.39 184.812 293.867 179.916 294.287 176.555C294.411 175.561 294.556 174.567 294.703 173.555C295.145 170.519 295.61 167.327 295.61 163.526C295.61 162.359 295.649 161.433 295.702 160.685C293.369 158.791 289.348 154.704 281.947 144.343C273.426 132.412 264.139 126.533 256.583 123.175C252.929 121.551 249.66 120.506 246.889 119.62L246.509 119.499C245.128 119.057 243.751 118.612 242.596 118.143C241.569 117.726 240.192 117.093 239.101 116.049C239.048 116.019 238.855 115.913 238.444 115.763C237.786 115.524 236.857 115.279 235.653 115.049C233.251 114.589 230.175 114.264 226.854 114.043C220.234 113.601 213.134 113.6 209.506 113.6H128.235L126.993 112.471C107.611 94.8516 94.4919 92.1894 85.0892 94.0699C80.2299 95.0418 75.9225 97.3005 71.8323 100.116C69.212 101.919 67.0038 103.697 64.7711 105.493ZM313.929 330.537C313.929 330.537 313.941 330.543 313.966 330.565C313.941 330.55 313.929 330.537 313.929 330.537Z" fill="white"/>
<path d="M247.145 316.889C260.986 317.251 279.032 316.157 300.735 314.348L301.456 323.001C279.746 324.81 261.28 325.945 246.917 325.568C239.733 325.38 233.432 324.812 228.188 323.712C223.004 322.624 218.47 320.94 215.152 318.251L220.619 311.505C222.395 312.944 225.383 314.251 229.972 315.214C234.502 316.164 240.226 316.707 247.145 316.889Z" fill="white"/>
</svg>
