<svg width="26" height="26" viewBox="0 0 26 26" fill="none" xmlns="http://www.w3.org/2000/svg">
<path d="M24.1719 7.41406H19.6016V6.09375C19.6016 4.97372 18.6903 4.0625 17.5703 4.0625C17.2005 4.0625 16.8537 4.16234 16.5547 4.3358V4.0625C16.5547 2.94247 15.6435 2.03125 14.5234 2.03125C14.1536 2.03125 13.8068 2.13109 13.5078 2.30455V2.03125C13.5078 0.911219 12.5966 0 11.4766 0C10.3565 0 9.44531 0.911219 9.44531 2.03125V2.3045C9.14631 2.13109 8.79953 2.03125 8.42969 2.03125C7.30966 2.03125 6.39844 2.94247 6.39844 4.0625V7.41406H1.82812C1.54766 7.41406 1.32031 7.64146 1.32031 7.92188V18.0781C1.32031 18.3585 1.54766 18.5859 1.82812 18.5859H3.38056C3.52122 19.8271 4.17132 20.9778 5.17969 21.7344L5.99214 22.3437C6.81606 22.9619 7.41406 24.286 7.41406 25.4922C7.41406 25.7726 7.64141 26 7.92188 26H10.207C10.4875 26 10.7148 25.7726 10.7148 25.4922C10.7148 25.2118 10.4875 24.9844 10.207 24.9844H8.40227C8.27547 23.7792 7.70463 22.3589 6.60156 21.5312L5.78911 20.9219C4.89877 20.254 4.36719 19.1908 4.36719 18.0781V10.512C5.5247 10.7479 6.39844 11.7739 6.39844 13V16.0469C6.39844 16.3273 6.62579 16.5547 6.90625 16.5547C8.83162 16.5547 10.4609 18.1135 10.4609 20.1094C10.4609 20.3898 10.6883 20.6172 10.9688 20.6172C11.2492 20.6172 11.4766 20.3898 11.4766 20.1094C11.4766 19.5885 11.387 19.0731 11.2151 18.5854H18.5707C18.5014 19.5792 18.1953 20.518 17.675 21.3232C17.0633 22.27 16.6461 23.6667 16.568 24.9844H14.7773C14.4969 24.9844 14.2695 25.2118 14.2695 25.4922C14.2695 25.7726 14.4969 26 14.7773 26H17.0625C17.3429 26 17.5703 25.7726 17.5703 25.4922V25.4257C17.5703 24.1688 17.9462 22.7749 18.528 21.8744C19.1542 20.9053 19.5164 19.776 19.5877 18.5859H24.1719C24.4523 18.5859 24.6797 18.3585 24.6797 18.0781V7.92188C24.6797 7.64146 24.4523 7.41406 24.1719 7.41406ZM17.5703 5.07812C18.1303 5.07812 18.5859 5.53373 18.5859 6.09375V7.41406H16.5547V6.09375C16.5547 5.53373 17.0103 5.07812 17.5703 5.07812ZM14.5234 3.04688C15.0835 3.04688 15.5391 3.50248 15.5391 4.0625V7.41406H13.5078V4.0625C13.5078 3.50248 13.9634 3.04688 14.5234 3.04688ZM10.4609 2.03125C10.4609 1.47123 10.9165 1.01562 11.4766 1.01562C12.0366 1.01562 12.4922 1.47123 12.4922 2.03125V7.41406H10.4609V2.03125ZM7.41406 4.0625C7.41406 3.50248 7.86967 3.04688 8.42969 3.04688C8.9897 3.04688 9.44531 3.50248 9.44531 4.0625V7.41406H7.41406V4.0625ZM23.6641 17.5703H10.7065C9.95653 16.4513 8.74494 15.7177 7.41406 15.5676V13C7.41406 11.0399 5.81943 9.44531 3.85938 9.44531C3.57891 9.44531 3.35156 9.67271 3.35156 9.95312V17.5703H2.33594V8.42969H23.6641V17.5703Z" fill="#A6A6A6"/>
<path d="M13 9.44531C10.7023 9.44531 8.42969 10.8515 8.42969 13C8.42969 15.1546 10.7107 16.5547 13 16.5547C15.2977 16.5547 17.5703 15.1485 17.5703 13C17.5703 10.8454 15.2893 9.44531 13 9.44531ZM13 15.5391C11.0399 15.5391 9.44531 14.4 9.44531 13C9.44531 11.6 11.0399 10.4609 13 10.4609C14.9601 10.4609 16.5547 11.6 16.5547 13C16.5547 14.4 14.9601 15.5391 13 15.5391Z" fill="#A6A6A6"/>
<path d="M13 11.4766C11.5525 11.4766 10.4609 12.1315 10.4609 13C10.4609 13.8685 11.5525 14.5234 13 14.5234C14.4475 14.5234 15.5391 13.8685 15.5391 13C15.5391 12.1315 14.4475 11.4766 13 11.4766ZM14.2092 13.264C13.8993 13.4189 13.4586 13.5078 13 13.5078C12.5414 13.5078 12.1007 13.4189 11.7908 13.264C11.5312 13.1343 11.4766 13.0176 11.4766 13C11.4766 12.9824 11.5312 12.8657 11.7908 12.736C12.1007 12.5811 12.5414 12.4922 13 12.4922C13.4586 12.4922 13.8993 12.5811 14.2092 12.736C14.4688 12.8658 14.5234 12.9824 14.5234 13C14.5234 13.0176 14.4688 13.1343 14.2092 13.264Z" fill="#A6A6A6"/>
<path d="M18.5859 13C18.5859 13.84 19.2694 14.5234 20.1094 14.5234C20.9494 14.5234 21.6328 13.84 21.6328 13C21.6328 12.16 20.9494 11.4766 20.1094 11.4766C19.2694 11.4766 18.5859 12.16 18.5859 13ZM20.1094 12.4922C20.3894 12.4922 20.6172 12.72 20.6172 13C20.6172 13.28 20.3894 13.5078 20.1094 13.5078C19.8294 13.5078 19.6016 13.28 19.6016 13C19.6016 12.72 19.8294 12.4922 20.1094 12.4922Z" fill="#A6A6A6"/>
<path d="M12.4922 26C12.7726 26 13 25.7726 13 25.4922C13 25.2117 12.7726 24.9844 12.4922 24.9844C12.2117 24.9844 11.9844 25.2117 11.9844 25.4922C11.9844 25.7726 12.2117 26 12.4922 26Z" fill="#A6A6A6"/>
</svg>
