<svg width="26" height="26" viewBox="0 0 26 26" fill="none" xmlns="http://www.w3.org/2000/svg">
<path d="M14.0156 26C14.2961 26 14.5234 25.7726 14.5234 25.4922C14.5234 25.2117 14.2961 24.9844 14.0156 24.9844C13.7352 24.9844 13.5078 25.2117 13.5078 25.4922C13.5078 25.7726 13.7352 26 14.0156 26Z" fill="#A6A6A6"/>
<path d="M19.0938 4.0625C18.7239 4.0625 18.3771 4.16234 18.0781 4.3358V4.0625C18.0781 2.94247 17.1669 2.03125 16.0469 2.03125C15.677 2.03125 15.3302 2.13109 15.0312 2.30455V2.03125C15.0312 0.911219 14.12 0 13 0C11.88 0 10.9688 0.911219 10.9688 2.03125V2.30455C10.6698 2.13109 10.323 2.03125 9.95312 2.03125C8.83309 2.03125 7.92188 2.94247 7.92188 4.0625V10.5156C7.27614 9.85583 6.3767 9.44531 5.38281 9.44531C5.1024 9.44531 4.875 9.67271 4.875 9.95312V18.0781C4.875 19.5087 5.55836 20.8755 6.70312 21.7344L7.51557 22.3437C8.3395 22.9619 8.9375 24.286 8.9375 25.4922C8.9375 25.7726 9.1649 26 9.44531 26H11.7305C12.0109 26 12.2383 25.7726 12.2383 25.4922C12.2383 25.2118 12.0109 24.9844 11.7305 24.9844H9.9257C9.7989 23.7793 9.22812 22.3589 8.125 21.5312L7.31255 20.9219C6.4222 20.2539 5.89062 19.1908 5.89062 18.0781V10.512C7.04813 10.7479 7.92188 11.7739 7.92188 13V16.0469C7.92188 16.3273 8.14927 16.5547 8.42969 16.5547C8.98914 16.5547 9.53946 16.6864 10.0345 16.9369C10.3419 18.2201 11.5044 19.2114 13.1412 20.606C13.4758 20.891 13.8217 21.1858 14.1891 21.5072C14.2848 21.591 14.4041 21.6328 14.5234 21.6328C14.6428 21.6328 14.7621 21.591 14.8578 21.5072C15.2252 21.1858 15.5712 20.891 15.9057 20.606C17.8254 18.9703 19.0938 17.8897 19.0938 16.2419C19.0938 14.7425 18.03 13.5078 16.5547 13.5078C15.546 13.5078 14.9061 14.0837 14.5234 14.64C14.1407 14.0837 13.5009 13.5078 12.4922 13.5078C11.1654 13.5078 10.1662 14.5075 9.98354 15.8106C9.64636 15.689 9.29515 15.6072 8.9375 15.5673C8.9375 15.2601 8.9375 4.3744 8.9375 4.0625C8.9375 3.50248 9.39311 3.04688 9.95312 3.04688C10.5131 3.04688 10.9688 3.50248 10.9688 4.0625V10.9688C10.9688 11.2492 11.1961 11.4766 11.4766 11.4766C11.757 11.4766 11.9844 11.2492 11.9844 10.9688V2.03125C11.9844 1.47123 12.44 1.01562 13 1.01562C13.56 1.01562 14.0156 1.47123 14.0156 2.03125V10.9688C14.0156 11.2492 14.243 11.4766 14.5234 11.4766C14.8039 11.4766 15.0312 11.2492 15.0312 10.9688V4.0625C15.0312 3.50248 15.4869 3.04688 16.0469 3.04688C16.6069 3.04688 17.0625 3.50248 17.0625 4.0625V10.9688C17.0625 11.2492 17.2899 11.4766 17.5703 11.4766C17.8507 11.4766 18.0781 11.2492 18.0781 10.9688V6.09375C18.0781 5.53373 18.5337 5.07812 19.0938 5.07812C19.6538 5.07812 20.1094 5.53373 20.1094 6.09375V18.1497C20.1094 19.2898 19.7856 20.4008 19.1732 21.3626C18.5759 22.3006 18.1685 23.6817 18.0914 24.9844H16.3008C16.0204 24.9844 15.793 25.2118 15.793 25.4922C15.793 25.7726 16.0204 26 16.3008 26H18.5859C18.8664 26 19.0938 25.7726 19.0938 25.4922V25.4257C19.0938 24.1819 19.4612 22.8012 20.03 21.908C20.7463 20.783 21.125 19.4833 21.125 18.1497V6.09375C21.125 4.97372 20.2138 4.0625 19.0938 4.0625ZM12.4922 14.5234C13.6233 14.5234 14.0179 15.8713 14.0342 15.9292C14.0954 16.1487 14.2954 16.3008 14.5234 16.3008C14.7522 16.3008 14.9526 16.1479 15.0132 15.9273C15.017 15.9132 15.4114 14.5234 16.5547 14.5234C17.4232 14.5234 18.0781 15.2622 18.0781 16.2419C18.0781 17.4208 17.0125 18.3287 15.247 19.8329C15.0128 20.0325 14.7729 20.2368 14.5234 20.4523C14.2739 20.2368 14.0341 20.0325 13.7999 19.8329C12.0343 18.3287 10.9688 17.4208 10.9688 16.2419C10.9688 15.2622 11.6237 14.5234 12.4922 14.5234Z" fill="#A6A6A6"/>
</svg>
