<svg width="144" height="144" viewBox="0 0 144 144" fill="none" xmlns="http://www.w3.org/2000/svg">
<path d="M100.192 70.3333C108.027 63.8542 116.936 58.9832 126 54.4512" stroke="white" stroke-width="3" stroke-linecap="round" stroke-linejoin="round"/>
<path d="M100.854 77.6125C106.268 79.8789 110.113 84.178 115.375 86.5462C118.849 88.1095 121.924 89.8021 125.338 91.5093" stroke="white" stroke-width="3" stroke-linecap="round" stroke-linejoin="round"/>
<path d="M97.5449 64.3776C97.8232 62.6384 97.719 60.0445 98.6111 58.4586C99.476 56.9209 100.652 57.6014 100.817 59.0835C100.895 59.7888 102.135 66.7101 103.354 63.0541C105.04 57.9959 104.192 52.3596 105.633 47.172C106.607 43.6665 109.097 43.7958 109.42 47.5029C109.656 50.2261 108.915 52.6126 108.795 55.2601C108.743 56.3902 108.063 57.8926 108.243 58.9733C108.487 60.4357 110.037 57.4638 110.118 57.0983C110.788 54.0858 110.78 51.2416 110.78 48.1646C110.78 47.3971 110.963 40.5725 113.133 41.6574C114.639 42.4104 114.089 47.7684 114.089 49.194C114.089 52.0879 113.249 54.8298 113.427 57.76C113.597 60.5632 115.371 53.7349 115.449 52.7601C115.611 50.7397 115.788 45.1868 118.721 45.1868C121.015 45.1868 120.122 50.3335 119.714 51.8043C118.985 54.4266 117.669 56.8726 120.192 53.7895C123.025 50.3261 122.691 57.7001 122.691 59.0835" stroke="white" stroke-width="3" stroke-linecap="round" stroke-linejoin="round"/>
<path d="M100.192 82.9066C104.199 89.6388 102.839 97.7387 102.839 105.406" stroke="white" stroke-width="3" stroke-linecap="round" stroke-linejoin="round"/>
<path d="M111.442 88.2006C109.908 92.7113 108.795 97.1624 108.795 101.95C108.795 103.752 108.904 105.593 108.795 107.391C108.652 109.749 105.503 106.633 104.824 106.068" stroke="white" stroke-width="3" stroke-linecap="round" stroke-linejoin="round"/>
<path d="M62.4722 74.9656C63.3367 77.5083 65.1243 83.932 69.0897 80.8478C71.3684 79.0755 72.6019 76.3916 73.0602 73.6421" stroke="white" stroke-width="3" stroke-linecap="round" stroke-linejoin="round"/>
<path d="M79.6776 59.7452C75.8712 61.1156 73.6048 62.147 73.7219 66.3628C73.7905 68.8332 76.309 71.0282 78.8688 70.0392C85.1194 67.6242 82.2737 60.6191 77.0306 59.7452" stroke="white" stroke-width="3" stroke-linecap="round" stroke-linejoin="round"/>
<path d="M79.6777 63.054C76.1982 68.4315 83.0985 65.8131 79.6777 62.3923" stroke="white" stroke-width="3" stroke-linecap="round" stroke-linejoin="round"/>
<path d="M57.1779 63.054C46.7929 66.8689 56.5201 74.3254 61.6631 71.2156C67.3298 67.7893 59.8691 59.929 54.5309 64.3775" stroke="white" stroke-width="3" stroke-linecap="round" stroke-linejoin="round"/>
<path d="M61.8101 66.3628C60.9278 65.7011 60.0454 65.0393 59.1631 64.3776" stroke="white" stroke-width="3" stroke-linecap="round" stroke-linejoin="round"/>
<path d="M61.8101 65.701C60.4234 66.0123 57.6558 66.2706 57.4719 68.201C57.3513 69.4671 58.7457 70.2598 59.8248 70.2598C62.652 70.2598 62.5781 67.7926 61.1483 66.3628" stroke="white" stroke-width="3" stroke-linecap="round" stroke-linejoin="round"/>
<path d="M96.8831 68.3481C97.8163 65.6033 100.854 58.8693 100.854 65.6643C100.854 68.2168 100.707 70.5548 101.515 72.9803" stroke="white" stroke-width="3" stroke-linecap="round" stroke-linejoin="round"/>
<path d="M98.2063 78.9361C100.175 76.1467 100.192 74.2462 100.192 70.9951" stroke="white" stroke-width="3" stroke-linecap="round" stroke-linejoin="round"/>
<path d="M60.4869 43.2015C53.3426 40.9153 51.4327 44.6089 46.7372 49.3043C43.7286 52.3129 41.9579 57.558 41.9579 61.7305C41.9579 63.2368 42.5978 66.6677 40.6344 67.2451C38.4791 67.879 35.7337 66.8785 33.3551 67.5393C29.3511 68.6515 28.0969 76.9508 33.3919 76.9508C35.9294 76.9508 38.1869 74.5173 40.6344 75.1126C43.1347 75.7208 43.5712 78.452 43.9431 80.5905C44.689 84.8792 46.6983 90.013 49.3842 93.4946C52.2241 97.1759 58.9293 95.3504 60.781 100.112C62.4354 104.366 62.3603 109.041 63.7957 113.347" stroke="white" stroke-width="3" stroke-linecap="round" stroke-linejoin="round"/>
<path d="M60.4868 42.5397C61.7105 42.9803 65.1433 45.2074 66.4426 44.3412C67.7319 43.4816 68.3202 41.9716 69.7513 41.2162C71.861 40.1028 74.147 40.9012 76.3689 40.4074C81.4642 39.2751 84.8384 40.4072 89.6039 41.7309C96.6663 43.6927 95.5596 60.9251 95.5596 67.0245" stroke="white" stroke-width="3" stroke-linecap="round" stroke-linejoin="round"/>
<path d="M96.883 80.2596C94.887 84.8904 93.19 88.5706 88.2803 90.48C85.6545 91.5011 80.9963 91.3911 79.4201 94.1931C78.2339 96.302 79.0157 100.393 79.0157 102.759C79.0157 106.352 79.6775 109.816 79.6775 113.347" stroke="white" stroke-width="3" stroke-linecap="round" stroke-linejoin="round"/>
<path d="M63.1338 33.2752C59.3121 25.6318 54.1911 24.1951 46.0753 24.0107C42.8511 23.9374 40.9087 25.0598 38.649 27.3195C36.2333 29.7352 32.6835 32.6817 31.0389 35.5913C27.7884 41.3422 24.0274 47.2369 21.7744 53.4954C19.4523 59.9456 19.4804 68.0462 21.4435 74.6715C22.3012 77.5664 23.5721 80.2988 24.3846 83.2007C25.1621 85.9775 24.9676 88.7647 25.561 91.5094C27.3767 99.9068 27.9881 108.527 32.0315 116.325C33.6616 119.469 34.2843 121.858 37.9873 122.759C41.0365 123.5 43.5958 122.878 46.6268 122.575C49.4761 122.29 52.4904 121.049 55.3399 120.479C59.0066 119.746 61.3057 120.312 63.1338 116.656" stroke="white" stroke-width="3" stroke-linecap="round" stroke-linejoin="round"/>
<path d="M63.1339 32.6135C62.176 25.9081 71.3468 21.5022 77.0307 20.5549C83.7619 19.433 89.1968 19.7235 94.898 24.1577C99.4807 27.7221 100.981 34.3236 103.501 39.231C105.104 42.3534 108.391 43.9531 109.457 47.319C110.288 49.9435 111.236 52.5118 112.104 55.113" stroke="white" stroke-width="3" stroke-linecap="round" stroke-linejoin="round"/>
<path d="M81.6626 112.685C84.589 111.749 87.2671 111.119 90.3389 111.399C92.9934 111.64 94.8409 113.422 97.5446 113.347C102.554 113.208 106.147 112.392 106.147 106.73" stroke="white" stroke-width="3" stroke-linecap="round" stroke-linejoin="round"/>
</svg>
