<svg width="144" height="144" viewBox="0 0 144 144" fill="none" xmlns="http://www.w3.org/2000/svg">
<path d="M53.5801 111.329C49.2105 105.768 46.2609 98.438 39.6626 94.9556C35.6959 92.8621 29.0367 89.5718 25.1084 93.5002C20.8754 97.7332 21.9229 103.777 25.5632 107.418C29.459 111.313 33.3313 117.501 38.8439 118.879C43.6705 120.086 49.1692 120.585 53.5801 122.791C58.4158 125.208 62.8335 127.618 68.3163 126.247C70.6329 125.668 73.4655 124.188 73.0919 121.199C72.7594 118.539 68.4719 118.914 66.6789 118.515C64.0816 117.938 61.599 117.185 59.3108 115.786C56.729 114.209 57.1215 111.6 54.3988 110.51" stroke="white" stroke-width="3" stroke-linecap="round" stroke-linejoin="round"/>
<path d="M53.5798 105.598C63.6367 112.697 71.5689 105.387 79.7775 99.2309C85.5665 94.8891 97.3387 82.5039 104.156 91.6809C116.527 108.334 76.7677 114.788 67.4973 117.879" stroke="white" stroke-width="3" stroke-linecap="round" stroke-linejoin="round"/>
<path d="M42.1183 95.7742C43.0989 90.3268 44.0198 84.7618 45.2111 79.4007C45.3798 78.6417 45.9381 73.5189 43.9376 74.8525C42.5458 75.7804 41.6896 80.2582 40.8903 81.8567C38.6121 86.4133 35.3999 91.6809 29.8382 91.6809C25.2795 91.6809 20.4506 92.1387 15.9207 91.6354C13.8611 91.4065 1.51655 87.367 7.73395 85.7682C10.5799 85.0364 10.8171 85.7371 9.3713 82.6754C8.09252 79.9674 8.3001 77.4174 11.0087 75.7622C16.5385 72.3828 20.8454 77.5469 17.3761 82.6754C15.0821 86.0667 26.2292 84.8195 28.2009 85.5863C34.221 87.9275 32.2942 81.4099 32.2942 76.9447C32.2942 71.3791 34.0201 67.0321 38.025 63.0272C41.9789 59.0732 46.5281 54.3711 51.9425 52.5663C54.4832 51.7194 51.0689 48.9195 50.3051 47.4723C48.9638 44.9309 48.6678 42.9404 48.6678 40.1043C48.6678 29.3205 62.8889 18 73.228 18C86.6625 18 91.457 28.0674 90.3748 40.5136C90.1349 43.2716 89.228 45.5758 87.1455 47.4269C86.1788 48.2862 81.4596 50.0357 82.0061 51.5657C83.4362 55.5701 92.2387 54.5103 94.5136 58.9338C96.6265 63.0421 96.9697 68.3423 96.9697 72.8513C96.9697 79.1507 98.7151 80.8591 105.156 81.0381C109.327 81.1539 115.116 84.202 118.983 85.8592C120.152 86.3603 118.276 75.039 123.986 76.3079C128.229 77.2509 135.117 83.5636 128.853 87.0872C126.356 88.4912 128.295 87.5875 130.535 87.5875C132.735 87.5875 136.12 88.0019 137.903 89.4068C140.72 91.6256 137.479 93.2679 135.266 93.3182C132.668 93.3773 129.355 91.4854 132.173 93.3637C133.044 93.9447 138.316 97.2764 136.903 98.5487C135.161 100.116 131.123 97.4658 129.717 96.411C124.842 92.7553 121.981 91.6809 115.799 91.6809C110.898 91.6809 106.487 89.0486 101.882 87.7694C97.5022 86.5529 91.2331 87.8063 89.2377 82.6754C87.3886 77.9206 87.2357 72.6297 84.6895 67.9393C83.0963 65.0043 81.0226 67.3863 80.4142 69.5766C79.6183 72.4418 80.2685 74.1691 80.5506 76.9902C81.0733 82.2172 80.5479 87.2983 81.4148 92.4995" stroke="white" stroke-width="3" stroke-linecap="round" stroke-linejoin="round"/>
<path d="M123.986 81.8568C123.016 83.2914 120.913 85.7937 123.213 87.0872C124.298 87.6973 126.108 87.7261 126.897 86.5869C128.981 83.576 125.525 81.4309 123.167 81.0381" stroke="white" stroke-width="3" stroke-linecap="round" stroke-linejoin="round"/>
<path d="M14.2835 76.9447C11.9528 77.0379 6.29089 77.1511 8.23439 81.0381C8.98891 82.5471 11.5286 85.0982 13.4648 84.5857C16.8884 83.6794 15.6547 75.8103 9.37144 79.4007" stroke="white" stroke-width="3" stroke-linecap="round" stroke-linejoin="round"/>
<path d="M60 33.1454C61.3397 33.1454 62.5446 33.1454 64 33.1454" stroke="white" stroke-width="3" stroke-linecap="round" stroke-linejoin="round"/>
<path d="M74 34.2263C75.5064 34.6632 76.6929 35.1703 78 35.9836" stroke="white" stroke-width="3" stroke-linecap="round" stroke-linejoin="round"/>
<path d="M61.7668 41.7417C63.3639 49.7269 70.7723 51.8719 70.7723 42.5604" stroke="white" stroke-width="3" stroke-linecap="round" stroke-linejoin="round"/>
<path d="M50.3054 54.0217C42.1216 65.6154 57.3265 73.0733 67.3157 72.8513C74.805 72.6849 89.1695 61.9693 83.8711 54.0217" stroke="white" stroke-width="3" stroke-linecap="round" stroke-linejoin="round"/>
<path d="M70.7722 105.598C73.7261 109.575 76.4996 113.765 77.3216 118.697" stroke="white" stroke-width="3" stroke-linecap="round" stroke-linejoin="round"/>
<path d="M48.6677 105.598C43.4966 109.147 39.7619 112.618 38.0249 118.697" stroke="white" stroke-width="3" stroke-linecap="round" stroke-linejoin="round"/>
<path d="M114.981 84.3127C114.593 86.7826 114.369 89.1985 114.162 91.6808" stroke="white" stroke-width="3" stroke-linecap="round" stroke-linejoin="round"/>
<path d="M20.8331 85.1315C19.3013 87.812 18.3027 90.3408 17.5583 93.3182" stroke="white" stroke-width="3" stroke-linecap="round" stroke-linejoin="round"/>
</svg>
