<svg width="144" height="144" viewBox="0 0 144 144" fill="none" xmlns="http://www.w3.org/2000/svg">
<path d="M18.6395 87.0463C22.1662 80.2644 29.7955 75.9914 34.4789 70.007C36.3988 67.5539 38.7419 65.4582 40.692 63.0206C42.7282 60.4754 44.4004 57.5161 46.3718 54.8876C50.3456 49.5892 56.1856 45.1805 60.8779 40.4881C64.9578 36.4082 69.8407 33.5971 75.6507 32.4351C80.731 31.419 85.243 33.7684 90.1568 33.7684C94.8842 33.7684 99.4686 34.1412 104.183 34.2484C105.921 34.2879 110.219 35.6392 110.316 37.7149C110.446 40.5013 109.796 43.1426 107.889 45.2879C103.814 49.8733 100.148 54.727 95.9166 59.2074C93.8157 61.4319 92.1455 64.1053 90.0501 66.3005C87.4155 69.0605 84.5711 71.7011 82.0238 74.5668C79.5314 77.3708 77.707 80.7235 75.0107 83.4198C72.2101 86.2204 68.9126 88.5602 66.6377 91.8462C64.7152 94.6231 62.0552 96.8071 59.918 99.4192C57.8463 101.951 54.5872 103.839 52.9849 106.752C50.0251 112.134 45.5468 115.477 40.7187 119.098C31.4321 126.063 19.7239 116.473 14.213 109.125C12.755 107.181 11.5093 104.909 11.4398 102.406C11.3654 99.7268 12.789 97.2943 13.3597 94.726C14.7551 88.447 21.1417 84.5442 25.3593 80.3266" stroke="white" stroke-width="3" stroke-linecap="round" stroke-linejoin="round"/>
<path d="M108.876 37.6082C109.923 40.3564 112.737 45.7264 111.276 48.6477C109.579 52.0416 106.566 55.9288 104.023 58.754C97.7032 65.7759 90.7448 72.3632 84.877 79.7399C82.0176 83.3346 78.2984 86.3084 75.3841 89.9262C72.7046 93.2524 69.9085 96.8361 67.0911 100.006C64.0656 103.409 61.4681 107.172 58.4514 110.565C55.4281 113.967 51.8734 116.789 48.3984 119.685" stroke="white" stroke-width="3" stroke-linecap="round" stroke-linejoin="round"/>
<path d="M10 102.886C11.6134 107.631 13.0566 112.875 16.6131 116.432C19.8373 119.656 24.176 123.567 28.2393 125.712C31.9692 127.68 36.8111 125.624 40.2388 124.005C44.6305 121.931 48.063 119.948 50.7984 115.845" stroke="white" stroke-width="3" stroke-linecap="round" stroke-linejoin="round"/>
<path d="M85.837 37.6082C85.3507 37.4526 80.92 35.7506 80.3972 36.8616C79.856 38.0117 83.8721 38.4685 84.3704 38.5682C85.5618 38.8064 86.917 39.4748 88.1303 39.4748C89.6001 39.4748 85.5931 37.9825 84.3971 37.1282" stroke="white" stroke-width="3" stroke-linecap="round" stroke-linejoin="round"/>
<path d="M46.3281 64.0345C48.8362 66.0509 51.8753 66.6285 54.37 68.6243C56.3094 70.1758 58.2875 71.5554 60.4309 72.8414C62.3037 73.9651 64.5892 75.3777 66.6291 76.1759C69.3522 77.2414 70.5305 78.2748 72.3761 75.4109C73.9118 73.0279 76.637 71.2055 78.8096 69.4089C81.4782 67.2022 83.6836 64.6244 86.0277 62.0927C88.0568 59.9013 89.8552 57.8499 92.1474 55.9142C94.2972 54.0988 94.5868 51.9339 91.5394 51.3244C86.8309 50.3827 83.9907 46.4534 79.5158 45.2439C75.727 44.2199 72.2432 40.1931 68.3944 42.8706C66.3366 44.302 64.8415 46.2323 63.275 48.1469C61.5431 50.2636 59.5458 51.876 57.626 53.7958C56.0098 55.4121 53.7422 57.2106 52.5067 59.1113C51.6987 60.3544 50.882 61.5422 49.8587 62.6223C49.4168 63.0888 48.4465 64.8813 48.4465 64.0345" stroke="white" stroke-width="3" stroke-linecap="round" stroke-linejoin="round"/>
<path d="M43.8567 69.6835C45.4111 71.2379 47.0588 73.1602 49.4272 73.2141C51.5497 73.2623 52.0599 73.639 53.7424 74.9009C56.8363 77.2213 60.1042 79.1181 63.628 80.6283" stroke="white" stroke-width="3" stroke-linecap="round" stroke-linejoin="round"/>
<path d="M70.6892 56.2672C71.3159 53.4187 73.3191 52.6273 75.9851 52.1089C78.7296 51.5753 78.3777 55.7164 77.0247 56.9341C75.6046 58.2121 73.1423 58.844 71.415 59.6213C69.7343 60.3776 67.9094 61.8288 66.0995 62.1908C64.1702 62.5766 64.6872 58.2084 64.6872 57.2479C64.6872 54.9174 64.4521 52.4936 66.1191 50.6182C67.2941 49.2964 70.0825 48.1103 71.1796 50.3044C71.8598 51.6649 70.4507 54.8644 69.9831 56.2672" stroke="white" stroke-width="3" stroke-linecap="round" stroke-linejoin="round"/>
<path d="M36.7956 78.8631C33.3262 81.6716 30.3484 85.0564 26.8903 87.8661C25.1759 89.2591 23.5507 90.7398 21.9671 92.2793C20.9375 93.2803 17.7202 94.7821 19.4957 96.163C22.7364 98.6836 25.79 102.087 28.3222 105.343C30.0239 107.531 32.825 114.642 36.0699 110.992C37.5349 109.343 38.808 107.458 40.1301 105.696C41.714 103.584 43.3945 102.173 45.2691 100.4C48.3567 97.479 52.218 95.2632 55.5078 92.5539C58.6151 89.995 48.8697 86.954 47.3874 86.1989C45.2149 85.0921 43.8366 83.0269 41.7581 81.8837C39.9911 80.9118 38.4677 79.6247 36.7956 78.51" stroke="white" stroke-width="3" stroke-linecap="round" stroke-linejoin="round"/>
<path d="M42.0913 73.2141C44.5477 73.6958 45.5166 74.5706 47.0341 76.3917" stroke="white" stroke-width="3" stroke-linecap="round" stroke-linejoin="round"/>
<path d="M21.967 96.8692C23.7366 95.2008 26.0811 93.7488 28.5967 93.6917C29.7528 93.6654 30.1194 94.181 31.127 94.4959C32.0969 94.7989 32.2347 92.2993 32.4019 91.7498C33.5206 88.0742 42.2146 86.1496 42.778 91.2202C42.9785 93.0249 41.6386 95.0378 39.9927 95.6139C39.0155 95.9559 35.1014 95.6602 35.0303 96.8692C34.9096 98.92 35.1887 101 35.0106 103.048C34.8978 104.346 32.0133 107.622 31.1466 106.755" stroke="white" stroke-width="3" stroke-linecap="round" stroke-linejoin="round"/>
<path d="M100.252 68.8355C97.7423 72.2584 101.453 68.0685 102.398 67.2807C102.838 66.9143 99.7436 71.0792 100.066 71.8205C100.603 73.0569 104.843 68.242 105.445 67.8404C107.321 66.59 102.028 70.9197 100.968 72.9088C100.862 73.1071 104.092 70.0334 104.854 69.2708C105.549 68.5761 110.145 63.5397 111.198 64.1713C111.641 64.4371 97.7364 80.047 96.6766 81.6775C94.5757 84.9096 99.53 81.8728 100.377 81.1489C104.69 77.4616 108.4 72.9517 112.442 68.9598C114.788 66.6419 117.441 63.8684 120.34 62.2123C122.957 60.7163 116.701 67.0607 114.494 69.1153C111.896 71.534 108.884 73.5679 106.409 76.1116C103.319 79.2879 107.835 75.6919 108.772 75.1166C109.605 74.6056 113.806 73.095 113.561 73.4375C113.014 74.2033 108.746 78.57 111.446 76.92C113.265 75.8087 114.374 74.4021 113.126 77.231C112.395 78.8866 114.444 76.6837 114.058 79.1278C113.747 81.0993 118.817 76.4592 119.282 76.1116C123.121 73.2463 127.359 70.85 131.471 68.4001C135.152 66.2075 131.161 70.4345 130.134 71.3852C125.905 75.3008 121.555 79.0924 117.386 83.0768C117.095 83.3543 110.272 90.7991 113.25 90.2907C116.25 89.7785 119.904 85.0987 122.205 83.2633C125.494 80.6405 128.429 77.5135 131.845 75.0544C135.332 72.5431 129.786 77.4452 129.077 78.1016C126.003 80.9482 123.15 84.0259 120.402 87.1813C119.205 88.5555 115.949 92.6388 119.966 90.2285C122.526 88.6925 124.94 86.8143 127.367 85.0668C130.119 83.085 130.4 82.8955 127.647 85.0979C126.023 86.3969 123.882 88.4919 127.553 87.741C128.633 87.5201 132.053 86.6947 131.036 86.1862" stroke="white" stroke-width="3" stroke-linecap="round" stroke-linejoin="round"/>
<path d="M50.4391 45.328C46.6398 49.1272 52.1804 43.9513 52.1804 43.027C52.1804 41.4569 48.2204 47.6944 48.6978 46.1986C49.2265 44.5419 52.7359 40.0192 49.3197 43.6489C48.4927 44.5276 48.8918 45.0718 49.755 44.2086C50.1223 43.8413 49.6065 43.1094 49.8794 42.5295C51.0283 40.088 53.334 38.2003 54.7923 35.9374C55.2301 35.258 59.6954 30.0756 56.5958 31.0245C53.1036 32.0935 50.2144 35.9231 47.5162 38.1762C42.1028 42.6967 37.2496 47.8767 31.7202 52.2621C29.6749 53.8842 25.5795 55.5614 28.6418 51.7335C31.8085 47.7751 35.9592 44.8645 39.8358 41.6588C43.9068 38.2924 48.284 35.2365 52.1182 31.6153C54.6665 29.2085 53.3768 28.0685 50.4702 29.3765C47.804 30.5763 45.5311 33.56 43.4117 35.5332C41.7777 37.0545 40.1957 38.5186 38.6853 40.1663C38.1911 40.7055 36.1404 42.2573 36.3221 42.1874C38.9465 41.1781 40.6002 39.3229 42.6343 37.4922C46.3657 34.134 40.376 36.2308 40.3023 37.9275C40.261 38.8773 41.8277 37.6165 40.7998 37.6165C39.8807 37.6165 38.5545 39.2055 37.6903 38.6738C35.5812 37.3758 40.3055 34.1542 35.8868 37.3678C34.7342 38.206 38.0781 34.1867 38.8097 33.5742C40.7812 31.9237 43.6357 30.0557 44.5933 27.5419C45.601 24.8967 37.7276 29.4624 37.0062 29.9051C31.8365 33.0774 27.0887 36.9919 21.8943 40.1663C17.1092 43.0905 19.3789 38.8551 21.4589 36.8081C26.5688 31.7793 32.1936 27.4654 37.7525 22.971C38.4238 22.4282 45.9807 15.9179 41.204 17.1563C36.9444 18.2606 32.4562 21.6926 28.8595 24.0904C25.1759 26.5461 14.7215 34.6524 17.852 31.522C20.4547 28.9193 23.928 27.0158 26.9316 24.93C28.0212 24.1733 35.3067 20.403 30.7873 22.3802C27.7702 23.7002 25.068 24.8348 22.5783 27.0755C21.8456 27.735 27.2557 24.5571 25.9366 24.7123C25 24.8225 23.2589 26.2901 22.3918 25.925C21.4621 25.5335 22.2133 23.8969 21.8943 22.9399" stroke="white" stroke-width="3" stroke-linecap="round" stroke-linejoin="round"/>
</svg>
