<svg width="144" height="144" viewBox="0 0 144 144" fill="none" xmlns="http://www.w3.org/2000/svg">
<path d="M59.167 33.0251C53.0938 32.1749 48.029 38.9327 45.5931 43.8044C43.1608 48.6691 44.2386 56.2888 45.3935 61.3706C46.2568 65.1692 49.3808 67.426 52.2914 69.7545C54.9258 71.862 57.7191 74.146 61.2519 74.146C67.5576 74.146 72.8847 73.659 78.3302 70.3312C80.5498 68.9747 82.5185 65.4866 84.0081 63.3668C85.5742 61.1381 87.1298 58.6597 87.7121 55.981C88.2331 53.5844 87.6842 51.0413 87.202 48.6839C86.6553 46.0111 85.8403 42.242 83.9194 40.2113C82.0522 38.2374 79.9494 35.2321 77.5317 34.0232C75.0941 32.8044 72.5537 32.2852 69.9241 31.6278C67.854 31.1103 64.4619 31.05 62.3609 31.5169C59.4455 32.1648 56.433 32.3113 53.5778 33.0251" stroke="white" stroke-width="3" stroke-linecap="round" stroke-linejoin="round"/>
<path d="M68.3494 46.5991C69.3283 43.8799 70.307 43.006 73.1402 43.006C75.2209 43.006 75.5355 44.3143 75.5355 46.1998" stroke="white" stroke-width="3" stroke-linecap="round" stroke-linejoin="round"/>
<path d="M52.7793 50.1923C54.5863 46.7172 58.6142 43.3746 61.5624 47.7969" stroke="white" stroke-width="3" stroke-linecap="round" stroke-linejoin="round"/>
<path d="M59.9653 56.9792C60.6664 61.4975 62.4291 62.9677 66.9519 62.9677C70.7245 62.9677 70.6211 58.4239 71.9423 55.7815" stroke="white" stroke-width="3" stroke-linecap="round" stroke-linejoin="round"/>
<path d="M55.1747 33.0252C53.2552 33.0709 50.6851 34.2407 50.4061 31.4505C50.1753 29.1434 52.9597 27.0473 54.7532 26.0608C56.0594 25.3425 59.1065 24.0582 60.1207 25.8612C61.3273 28.0062 57.0148 29.4882 58.6125 26.4157C59.2967 25.1 63.1486 21.7236 64.7119 23.5102C65.3566 24.247 65.2922 25.7694 64.9115 26.6153C64.3364 27.8933 63.5033 27.2249 64.2017 26.0608C65.4032 24.0583 68.6308 21.6103 69.303 25.2402C69.4711 26.148 69.213 27.5625 68.3715 28.1235C67.7156 28.5608 68.8615 26.1618 69.1921 25.8612C70.9774 24.2382 73.4885 24.2774 73.3619 27.1255C73.3413 27.59 72.4882 29.5977 71.7206 29.166C70.9736 28.7458 73.2871 26.5316 73.5393 26.327C75.6084 24.6483 77.7571 26.1642 76.5558 28.6337C76.3856 28.9834 74.7548 30.6166 75.0032 29.3434C75.2117 28.2748 76.2336 27.0639 77.2211 26.6375C79.3269 25.7282 81.8697 27.4784 80.9473 29.9201C80.5429 30.9906 79.5282 31.8487 78.7294 32.626C78.4476 32.9001 76.3811 34.5383 77.2211 33.1139C77.8931 31.9745 81.2982 29.4329 81.8345 31.7388C82.1804 33.2263 81.7998 36.4949 79.927 34.6221" stroke="white" stroke-width="3" stroke-linecap="round" stroke-linejoin="round"/>
<path d="M80.3262 72.15C79.0837 68.0083 81.7801 66.1977 84.2964 63.3669C86.5768 60.8014 87.8867 59.0875 88.6214 55.7815C88.8737 54.6463 88.7101 53.3463 88.7101 52.1884C88.7101 50.4892 90.2534 50.1684 90.8837 51.7892C91.7063 53.9043 91.2625 57.5516 89.9965 59.3746C86.9952 63.6964 87.0089 70.0762 88.0004 75.0334C88.3045 76.5542 88.3794 78.0404 88.9097 79.5136C89.474 81.0812 90.8238 82.3077 91.1055 83.9274C91.6096 86.8258 92.4013 89.601 92.7246 92.5108C93.066 95.5831 93.6918 98.6375 94.2106 101.693C94.672 104.41 95.3508 107.747 95.0756 110.498C94.8742 112.512 93.0781 117.82 91.0168 118.683C87.1641 120.295 86.0698 114.017 85.3166 111.674C83.3558 105.574 83.3246 99.3959 82.3224 93.1319C81.8487 90.1711 81.1247 87.254 81.1247 84.2157C81.1247 81.1299 80.5031 77.5169 78.3301 75.3439" stroke="white" stroke-width="3" stroke-linecap="round" stroke-linejoin="round"/>
<path d="M76.334 71.7507C77.2048 72.8895 78.1163 73.9323 79.1286 74.9446" stroke="white" stroke-width="3" stroke-linecap="round" stroke-linejoin="round"/>
<path d="M43.5969 57.7776C40.5501 62.0939 44.3017 69.0319 48.3877 71.5289C52.8159 74.235 53.5777 79.225 53.5777 84.1491C53.5777 88.8219 51.9317 93.2462 50.6944 97.7008C49.3635 102.492 46.7908 107.055 46.7908 112.073C46.7908 115.359 46.916 116.611 49.8959 118.372C51.6875 119.431 55.1849 120.694 56.5498 118.461C59.3372 113.9 61.1026 107.793 61.5845 102.492C61.8318 99.7711 62.76 97.3026 62.76 94.5291C62.76 92.0586 62.0555 89.7616 61.9616 87.3208C61.7563 81.9826 59.9195 77.6474 57.57 72.9484" stroke="white" stroke-width="3" stroke-linecap="round" stroke-linejoin="round"/>
<path d="M43.5969 58.1769C44.3332 54.6429 44.6747 56.4995 45.1939 58.5761" stroke="white" stroke-width="3" stroke-linecap="round" stroke-linejoin="round"/>
<path d="M61.1632 74.1461C61.1632 76.1349 61.1632 78.1237 61.1632 80.1124C61.1632 81.5943 60.5317 82.8347 60.9858 84.3265C62.0028 87.6683 65.092 90.9139 68.7264 90.9139C71.426 90.9139 75.1905 87.6752 76.334 85.3246C77.7195 82.4767 77.0701 78.7559 77.9309 75.743" stroke="white" stroke-width="3" stroke-linecap="round" stroke-linejoin="round"/>
<path d="M51.5816 81.3323C44.7118 84.8345 42 91.1038 42 98.4993C42 101.471 42.2447 104.347 42.3992 107.282C42.5914 110.933 44.5434 113.369 46.7908 116.065" stroke="white" stroke-width="3" stroke-linecap="round" stroke-linejoin="round"/>
<path d="M88.311 76.5415C90.6136 77.8802 93.8069 78.53 95.2754 80.9331C96.6918 83.2508 97.5762 85.8264 99.0903 88.1192C101.509 91.7822 103.82 96.6809 104.879 100.917C105.954 105.214 104.485 109.057 102.284 112.672C100.263 115.993 95.1514 117.263 91.5049 117.263" stroke="white" stroke-width="3" stroke-linecap="round" stroke-linejoin="round"/>
<path d="M93.9004 95.3054C98.5234 98.7047 104.428 101.78 105.478 108.081" stroke="white" stroke-width="3" stroke-linecap="round" stroke-linejoin="round"/>
<path d="M43.5969 102.492C44.5445 99.4383 45.5179 98.5699 48.6982 98.4993C49.5487 98.4804 52.6242 98.7357 51.1823 99.6969" stroke="white" stroke-width="3" stroke-linecap="round" stroke-linejoin="round"/>
<path d="M58.7676 118.86C64.1739 115.4 69.2553 119.729 75.1583 119.237C77.7708 119.019 80.3293 117.627 82.9211 117.064C85.0262 116.606 86.9452 116.065 89.1092 116.065" stroke="white" stroke-width="3" stroke-linecap="round" stroke-linejoin="round"/>
</svg>
