<svg width="144" height="144" viewBox="0 0 144 144" fill="none" xmlns="http://www.w3.org/2000/svg">
<path d="M39.096 125.322C36.7591 124.923 34.3132 124.764 33.6317 122.258C33.3479 121.214 33.1054 119.556 33.8301 118.731C35.2481 117.117 40.1145 116.808 42.3176 117.402C47.4968 118.797 52.9508 121.944 57.5647 124.653C59.9216 126.037 62.3454 128.397 59.9919 130.41C57.8615 132.231 54.9511 131.719 52.1217 131.136C49.6126 130.619 47.0945 129.789 44.6771 128.929C41.5604 127.821 40.0141 125.664 36.7112 125.245" stroke="white" stroke-width="3" stroke-linecap="round" stroke-linejoin="round"/>
<path d="M40.0801 117.109C38.6159 113.744 40.7826 109.723 44.9323 110.159C46.4609 110.319 47.6295 111.267 49.0852 111.636C50.7304 112.052 52.3632 112.355 54.008 112.772C56.5394 113.413 60.8736 114.605 61.0519 117.814C61.2283 120.988 59.5767 124.357 55.9614 123.127" stroke="white" stroke-width="3" stroke-linecap="round" stroke-linejoin="round"/>
<path d="M45.6262 110.532C45.5676 103.18 54.0461 108.235 57.83 106.022C60.0807 104.706 59.447 102.846 58.7337 106.005C58.1379 108.643 59.5204 110.142 57.2721 112.262" stroke="white" stroke-width="3" stroke-linecap="round" stroke-linejoin="round"/>
<path d="M54.4203 105.637C54.6206 101.696 57.7624 98.6483 60.7664 96.3034C63.473 94.1907 64.6042 91.7313 65.4991 88.5044C67.1809 82.4402 70.9755 77.3027 73.9122 71.8372" stroke="white" stroke-width="3" stroke-linecap="round" stroke-linejoin="round"/>
<path d="M74.6117 69.6924C73.9657 69.7841 68.8418 70.6015 70.2131 69.4529C71.2355 68.5966 75.0925 66.473 76.3303 67.43C77.0618 67.9956 79.3017 71.0537 78.8303 71.9311C78.437 72.663 75.3407 70.5871 74.7923 70.2924" stroke="white" stroke-width="3" stroke-linecap="round" stroke-linejoin="round"/>
<path d="M76.3319 67.409C84.8304 67.5239 92.4121 62.9728 99.583 58.9689C106.18 55.2855 114.747 50.9406 115.868 42.3982C116.325 38.9127 115.885 35.397 115.554 31.9233C115.233 28.5466 114.781 23.4109 112.633 20.6872C110.703 18.239 108.298 17.1239 105.594 15.6707C102.5 14.0085 99.7334 12.328 96.112 12.2216C89.0917 12.0151 81.9676 13.4699 76.1767 17.5528C73.8563 19.1888 72.1754 22.221 70.5151 24.4745C68.2599 27.5358 65.9305 30.7767 64.6572 34.3987C62.5148 40.493 66.3642 45.2584 68.9189 50.5828C70.4173 53.7059 71.3478 56.7632 72.5145 60.0104C73.4235 62.5402 74.3139 65.3968 76.5035 67.0898" stroke="white" stroke-width="3" stroke-linecap="round" stroke-linejoin="round"/>
<path d="M69.2849 106.36C70.5171 106.656 72.05 105.978 70.2579 105.485C68.9345 105.122 69.0098 106.352 69.0597 106.155C69.3388 105.053 69.1418 100.973 71.3647 101.553C74.5228 102.377 68.3586 104.665 71.8075 104.474C75.3121 104.279 73.7181 105.896 71.0851 105.818" stroke="white" stroke-width="3" stroke-linecap="round" stroke-linejoin="round"/>
<path d="M40.858 100.023C43.7933 99.0354 41.8616 98.0331 40.6703 98.9162C39.6015 99.7085 40.8013 101.247 41.8413 99.5454C42.7084 98.1264 47.458 95.8397 46.1012 94.0095C44.0196 91.2014 42.3811 98.3849 41.3182 96.358C41.0715 95.8876 39.0848 93.4438 38.7296 95.2466C38.491 96.4576 40.7329 97.4408 41.5163 97.8618" stroke="white" stroke-width="3" stroke-linecap="round" stroke-linejoin="round"/>
</svg>
