<svg width="244" height="101" viewBox="0 0 244 101" fill="none" xmlns="http://www.w3.org/2000/svg">
<path d="M-1.39876e-06 7.99999C-6.26247e-07 3.58172 3.58172 6.26248e-07 8 1.39876e-06L236 4.12636e-05C240.418 4.20361e-05 244 3.58176 244 8.00004L244 93C244 97.4183 240.418 101 236 101L7.99999 101C3.58171 101 -1.70331e-05 97.4182 -1.62606e-05 93L-1.39876e-06 7.99999Z" fill="#0B1018"/>
<g clip-path="url(#clip0)">
<path d="M72.5605 50.3775C72.5605 65.6396 65.4025 78.0119 56.5726 78.0119C47.7427 78.0119 40.5847 65.6396 40.5847 50.3775C40.5847 35.1155 47.7427 22.7432 56.5726 22.7432C65.4025 22.7432 72.5605 35.1155 72.5605 50.3775Z" fill="white"/>
<path d="M29.0244 50.5C29.0244 42.8084 32.852 36.0084 38.7112 31.8914C39.6293 31.2463 40.8308 31.9356 40.8308 33.0533L40.8308 67.9496C40.8308 69.0674 39.6292 69.7537 38.7112 69.1086C32.852 64.9915 29.0244 58.1916 29.0244 50.5Z" fill="white"/>
<path d="M22.3831 50.4998C22.3831 47.5264 23.6903 44.8505 25.7751 42.9881C26.6066 42.2453 27.7944 42.9221 27.7944 44.0336L27.7944 56.9691C27.7944 58.0805 26.6066 58.7543 25.7751 58.0115C23.6903 56.1491 22.3831 53.4732 22.3831 50.4998Z" fill="white"/>
<path d="M18.9397 50.4998C18.9397 49.5787 19.1878 48.7171 19.6189 47.9818C20.1894 47.009 21.3994 47.62 21.3994 48.7461L21.3994 52.2547C21.3994 53.3809 20.1894 53.9906 19.6189 53.0178C19.1878 52.2825 18.9397 51.4209 18.9397 50.4998Z" fill="white"/>
<path d="M84.6128 50.5003C84.6128 40.2827 79.4062 31.2806 71.5002 26C70.5665 25.3764 69.3628 26.0677 69.3628 27.1861L69.3628 73.8257C69.3628 74.9441 70.5665 75.6242 71.5002 75.0006C79.4062 69.72 84.6128 60.7179 84.6128 50.5003Z" fill="white"/>
</g>
<path d="M129.305 32.0293L129.305 51.6003L124.51 51.6003L124.51 39.8633L120.108 51.6003L116.238 51.6003L111.808 39.8354L111.808 51.6003L107.013 51.6003L107.013 32.0293L112.677 32.0293L118.201 45.5785L123.669 32.0293L129.305 32.0293Z" fill="white"/>
<path d="M148.203 36.0439L148.203 51.6003L143.408 51.6003L143.408 49.4815C142.922 50.1692 142.259 50.7268 141.417 51.1543C140.595 51.5631 139.679 51.7676 138.669 51.7676C137.473 51.7676 136.417 51.5074 135.501 50.987C134.585 50.448 133.875 49.6767 133.37 48.673C132.865 47.6694 132.613 46.4892 132.613 45.1324L132.613 36.0439L137.38 36.0439L137.38 44.4912C137.38 45.532 137.651 46.3405 138.193 46.9167C138.735 47.4928 139.464 47.7809 140.38 47.7809C141.315 47.7809 142.053 47.4928 142.595 46.9167C143.137 46.3405 143.408 45.532 143.408 44.4912L143.408 36.0439L148.203 36.0439Z" fill="white"/>
<path d="M160.368 47.5579L160.368 51.6003L157.928 51.6003C156.19 51.6003 154.835 51.1821 153.862 50.3458C152.89 49.4908 152.404 48.1062 152.404 46.1918L152.404 40.0027L150.498 40.0027L150.498 36.0439L152.404 36.0439L152.404 32.2523L157.199 32.2523L157.199 36.0439L160.34 36.0439L160.34 40.0027L157.199 40.0027L157.199 46.2476C157.199 46.7122 157.311 47.0468 157.536 47.2512C157.76 47.4556 158.134 47.5579 158.657 47.5579L160.368 47.5579Z" fill="white"/>
<path d="M177.788 43.5712C177.788 44.0172 177.76 44.4819 177.704 44.9651L166.852 44.9651C166.927 45.9316 167.235 46.675 167.777 47.1954C168.338 47.6973 169.021 47.9482 169.824 47.9482C171.021 47.9482 171.853 47.4464 172.32 46.4427L177.423 46.4427C177.162 47.4649 176.685 48.3849 175.993 49.2027C175.32 50.0205 174.47 50.6617 173.442 51.1264C172.413 51.591 171.264 51.8233 169.993 51.8233C168.46 51.8233 167.095 51.4981 165.899 50.8476C164.702 50.1971 163.768 49.2678 163.095 48.0597C162.422 46.8516 162.085 45.4391 162.085 43.8221C162.085 42.2051 162.412 40.7926 163.067 39.5845C163.74 38.3764 164.674 37.4471 165.871 36.7966C167.067 36.1461 168.441 35.8208 169.993 35.8208C171.507 35.8208 172.853 36.1368 174.03 36.7687C175.208 37.4006 176.124 38.3021 176.778 39.473C177.451 40.6439 177.788 42.01 177.788 43.5712ZM172.881 42.3166C172.881 41.4988 172.6 40.8483 172.04 40.3651C171.479 39.8819 170.778 39.6403 169.937 39.6403C169.133 39.6403 168.45 39.8726 167.89 40.3372C167.348 40.8019 167.011 41.4617 166.88 42.3166L172.881 42.3166Z" fill="white"/>
<path d="M188.671 34.4269C187.83 34.4269 187.138 34.1853 186.596 33.702C186.073 33.2002 185.811 32.5869 185.811 31.862C185.811 31.1186 186.073 30.5053 186.596 30.022C187.138 29.5202 187.83 29.2693 188.671 29.2693C189.494 29.2693 190.167 29.5202 190.69 30.022C191.232 30.5053 191.503 31.1186 191.503 31.862C191.503 32.5869 191.232 33.2002 190.69 33.702C190.167 34.1853 189.494 34.4269 188.671 34.4269ZM191.054 36.0439L191.054 51.6003L186.26 51.6003L186.26 36.0439L191.054 36.0439Z" fill="white"/>
<path d="M203.25 47.5579L203.25 51.6003L200.81 51.6003C199.072 51.6003 197.717 51.1821 196.744 50.3458C195.772 49.4908 195.286 48.1062 195.286 46.1918L195.286 40.0027L193.38 40.0027L193.38 36.0439L195.286 36.0439L195.286 32.2523L200.081 32.2523L200.081 36.0439L203.222 36.0439L203.222 40.0027L200.081 40.0027L200.081 46.2476C200.081 46.7122 200.193 47.0468 200.418 47.2512C200.642 47.4556 201.016 47.5579 201.539 47.5579L203.25 47.5579Z" fill="white"/>
<path d="M109.54 70.5717C108.879 70.5717 108.286 70.4621 107.762 70.243C107.237 70.0135 106.822 69.7004 106.518 69.3039C106.214 68.897 106.046 68.4327 106.014 67.911L107.494 67.911C107.536 68.3388 107.735 68.6883 108.092 68.9596C108.459 69.2309 108.937 69.3665 109.525 69.3665C110.07 69.3665 110.501 69.2465 110.815 69.0065C111.13 68.7666 111.288 68.464 111.288 68.0988C111.288 67.7231 111.12 67.4466 110.784 67.2693C110.448 67.0814 109.929 66.8988 109.226 66.7215C108.585 66.5545 108.061 66.3876 107.651 66.2206C107.253 66.0432 106.906 65.7876 106.612 65.4537C106.329 65.1094 106.187 64.6607 106.187 64.1077C106.187 63.6694 106.319 63.2677 106.581 62.9025C106.843 62.5373 107.216 62.2504 107.699 62.0417C108.181 61.8226 108.732 61.713 109.351 61.713C110.306 61.713 111.078 61.953 111.666 62.433C112.253 62.913 112.568 63.5703 112.61 64.4051L111.178 64.4051C111.146 63.9564 110.962 63.5964 110.627 63.3251C110.301 63.0538 109.86 62.9182 109.304 62.9182C108.79 62.9182 108.381 63.0277 108.076 63.2469C107.772 63.466 107.62 63.7529 107.62 64.1077C107.62 64.3894 107.709 64.6242 107.887 64.812C108.076 64.9894 108.307 65.1355 108.58 65.2502C108.863 65.3546 109.252 65.4746 109.745 65.6102C110.364 65.7772 110.868 65.9441 111.256 66.1111C111.645 66.2676 111.975 66.5076 112.248 66.831C112.531 67.1545 112.678 67.5771 112.689 68.0988C112.689 68.5683 112.558 68.9909 112.295 69.3665C112.033 69.7422 111.66 70.0395 111.178 70.2587C110.705 70.4673 110.16 70.5717 109.54 70.5717Z" fill="white"/>
<path d="M118.473 70.5717C117.665 70.5717 116.931 70.3891 116.269 70.0239C115.619 69.6587 115.105 69.1422 114.727 68.4744C114.359 67.7962 114.176 67.0136 114.176 66.1267C114.176 65.2502 114.365 64.4781 114.742 63.8103C115.131 63.1321 115.655 62.6156 116.317 62.2608C116.978 61.8956 117.718 61.713 118.536 61.713C119.355 61.713 120.095 61.8956 120.756 62.2608C121.417 62.6156 121.937 63.1269 122.314 63.7947C122.703 64.4624 122.897 65.2398 122.897 66.1267C122.897 67.0136 122.697 67.7962 122.299 68.4744C121.91 69.1422 121.38 69.6587 120.709 70.0239C120.037 70.3891 119.292 70.5717 118.473 70.5717ZM118.473 69.3196C118.988 69.3196 119.47 69.1996 119.922 68.9596C120.373 68.7196 120.735 68.3596 121.008 67.8797C121.291 67.3997 121.433 66.8154 121.433 66.1267C121.433 65.438 121.296 64.8537 121.023 64.3738C120.751 63.8938 120.394 63.539 119.953 63.3095C119.512 63.0695 119.035 62.9495 118.521 62.9495C117.996 62.9495 117.513 63.0695 117.072 63.3095C116.642 63.539 116.296 63.8938 116.033 64.3738C115.771 64.8537 115.64 65.438 115.64 66.1267C115.64 66.8258 115.766 67.4153 116.018 67.8953C116.28 68.3753 116.626 68.7353 117.057 68.9753C117.487 69.2048 117.959 69.3196 118.473 69.3196Z" fill="white"/>
<path d="M132.431 61.8539L132.431 70.4308L130.998 70.4308L130.998 69.1631C130.725 69.6013 130.342 69.9456 129.849 70.1961C129.366 70.436 128.831 70.556 128.243 70.556C127.572 70.556 126.968 70.4204 126.433 70.1491C125.898 69.8674 125.473 69.45 125.158 68.897C124.854 68.344 124.702 67.671 124.702 66.878L124.702 61.8539L126.118 61.8539L126.118 66.6902C126.118 67.5353 126.333 68.1875 126.764 68.6466C127.194 69.0952 127.782 69.3196 128.527 69.3196C129.293 69.3196 129.896 69.0848 130.337 68.6153C130.778 68.1457 130.998 67.4623 130.998 66.5649L130.998 61.8539L132.431 61.8539Z" fill="white"/>
<path d="M139.053 61.6974C140.102 61.6974 140.952 62.0156 141.603 62.6521C142.254 63.2782 142.579 64.1859 142.579 65.3754L142.579 70.4308L141.162 70.4308L141.162 65.5789C141.162 64.7233 140.947 64.0712 140.517 63.6225C140.086 63.1634 139.499 62.9338 138.754 62.9338C137.998 62.9338 137.395 63.1686 136.943 63.6381C136.502 64.1077 136.282 64.7911 136.282 65.6885L136.282 70.4308L134.85 70.4308L134.85 61.8539L136.282 61.8539L136.282 63.0747C136.565 62.6365 136.948 62.2973 137.431 62.0574C137.924 61.8174 138.465 61.6974 139.053 61.6974Z" fill="white"/>
<path d="M144.384 66.1111C144.384 65.2346 144.562 64.4677 144.919 63.8103C145.276 63.1425 145.764 62.626 146.383 62.2608C147.013 61.8956 147.716 61.713 148.492 61.713C149.164 61.713 149.788 61.8695 150.366 62.1826C150.943 62.4852 151.384 62.8869 151.688 63.3877L151.688 58.8488L153.136 58.8488L153.136 70.4308L151.688 70.4308L151.688 68.8187C151.405 69.33 150.985 69.7526 150.429 70.0865C149.872 70.41 149.222 70.5717 148.477 70.5717C147.71 70.5717 147.013 70.3839 146.383 70.0082C145.764 69.6326 145.276 69.1057 144.919 68.4275C144.562 67.7492 144.384 66.9771 144.384 66.1111ZM151.688 66.1267C151.688 65.4798 151.557 64.9163 151.294 64.4364C151.032 63.9564 150.675 63.5912 150.224 63.3408C149.783 63.0799 149.295 62.9495 148.76 62.9495C148.225 62.9495 147.737 63.0747 147.296 63.3251C146.855 63.5755 146.504 63.9407 146.241 64.4207C145.979 64.9007 145.848 65.4641 145.848 66.1111C145.848 66.7684 145.979 67.3423 146.241 67.8327C146.504 68.3127 146.855 68.6831 147.296 68.9439C147.737 69.1944 148.225 69.3196 148.76 69.3196C149.295 69.3196 149.783 69.1944 150.224 68.9439C150.675 68.6831 151.032 68.3127 151.294 67.8327C151.557 67.3423 151.688 66.7736 151.688 66.1267Z" fill="white"/>
<path d="M164.036 61.6974C164.686 61.6974 165.274 61.8382 165.799 62.12C166.323 62.3913 166.733 62.8034 167.027 63.3564C167.331 63.9094 167.483 64.5824 167.483 65.3754L167.483 70.4308L166.066 70.4308L166.066 65.5789C166.066 64.7233 165.851 64.0712 165.421 63.6225C164.991 63.1634 164.403 62.9338 163.658 62.9338C162.902 62.9338 162.299 63.1686 161.847 63.6381C161.407 64.1077 161.186 64.7911 161.186 65.6885L161.186 70.4308L159.754 70.4308L159.754 58.8488L161.186 58.8488L161.186 63.0747C161.47 62.6365 161.858 62.2973 162.351 62.0574C162.855 61.8174 163.416 61.6974 164.036 61.6974Z" fill="white"/>
<path d="M177.694 65.8137C177.694 66.085 177.678 66.3719 177.647 66.6745L170.752 66.6745C170.804 67.5197 171.093 68.1823 171.618 68.6622C172.153 69.1318 172.798 69.3665 173.554 69.3665C174.173 69.3665 174.687 69.2257 175.097 68.9439C175.516 68.6518 175.81 68.2657 175.978 67.7857L177.521 67.7857C177.29 68.6101 176.828 69.2831 176.136 69.8048C175.443 70.316 174.582 70.5717 173.554 70.5717C172.735 70.5717 172.001 70.3891 171.35 70.0239C170.71 69.6587 170.206 69.1422 169.839 68.4744C169.472 67.7962 169.288 67.0136 169.288 66.1267C169.288 65.2398 169.466 64.4624 169.823 63.7947C170.18 63.1269 170.678 62.6156 171.319 62.2608C171.969 61.8956 172.714 61.713 173.554 61.713C174.373 61.713 175.097 61.8904 175.726 62.2452C176.356 62.5999 176.839 63.0903 177.175 63.7164C177.521 64.332 177.694 65.0311 177.694 65.8137ZM176.214 65.5163C176.214 64.9737 176.094 64.5094 175.852 64.1233C175.611 63.7268 175.28 63.4295 174.861 63.2312C174.451 63.0225 173.995 62.9182 173.491 62.9182C172.767 62.9182 172.148 63.1477 171.633 63.6068C171.13 64.0659 170.841 64.7024 170.768 65.5163L176.214 65.5163Z" fill="white"/>
<path d="M181.017 58.8488L181.017 70.4308L179.585 70.4308L179.585 58.8488L181.017 58.8488Z" fill="white"/>
<path d="M184.891 63.4347C185.175 62.9443 185.595 62.5373 186.151 62.2139C186.718 61.88 187.373 61.713 188.119 61.713C188.885 61.713 189.577 61.8956 190.197 62.2608C190.826 62.626 191.319 63.1425 191.676 63.8103C192.033 64.4677 192.211 65.2346 192.211 66.1111C192.211 66.9771 192.033 67.7492 191.676 68.4275C191.319 69.1057 190.826 69.6326 190.197 70.0082C189.577 70.3839 188.885 70.5717 188.119 70.5717C187.384 70.5717 186.733 70.41 186.167 70.0865C185.61 69.7526 185.185 69.3404 184.891 68.85L184.891 74.5002L183.459 74.5002L183.459 61.8539L184.891 61.8539L184.891 63.4347ZM190.747 66.1111C190.747 65.4641 190.616 64.9007 190.354 64.4207C190.092 63.9407 189.735 63.5755 189.283 63.3251C188.843 63.0747 188.355 62.9495 187.819 62.9495C187.295 62.9495 186.807 63.0799 186.355 63.3408C185.915 63.5912 185.558 63.9616 185.285 64.452C185.023 64.932 184.891 65.4902 184.891 66.1267C184.891 66.7736 185.023 67.3423 185.285 67.8327C185.558 68.3127 185.915 68.6831 186.355 68.9439C186.807 69.1944 187.295 69.3196 187.819 69.3196C188.355 69.3196 188.843 69.1944 189.283 68.9439C189.735 68.6831 190.092 68.3127 190.354 67.8327C190.616 67.3423 190.747 66.7684 190.747 66.1111Z" fill="white"/>
<path d="M201.968 65.8137C201.968 66.085 201.952 66.3719 201.921 66.6745L195.026 66.6745C195.078 67.5197 195.367 68.1823 195.892 68.6622C196.427 69.1318 197.072 69.3665 197.828 69.3665C198.447 69.3665 198.961 69.2257 199.371 68.9439C199.79 68.6518 200.084 68.2657 200.252 67.7857L201.795 67.7857C201.564 68.6101 201.102 69.2831 200.41 69.8048C199.717 70.316 198.856 70.5717 197.828 70.5717C197.009 70.5717 196.275 70.3891 195.624 70.0239C194.984 69.6587 194.48 69.1422 194.113 68.4744C193.745 67.7962 193.562 67.0136 193.562 66.1267C193.562 65.2398 193.74 64.4624 194.097 63.7947C194.454 63.1269 194.952 62.6156 195.593 62.2608C196.243 61.8956 196.988 61.713 197.828 61.713C198.646 61.713 199.371 61.8904 200 62.2452C200.63 62.5999 201.113 63.0903 201.449 63.7164C201.795 64.332 201.968 65.0311 201.968 65.8137ZM200.488 65.5163C200.488 64.9737 200.368 64.5094 200.126 64.1233C199.885 63.7268 199.554 63.4295 199.134 63.2312C198.725 63.0225 198.269 62.9182 197.765 62.9182C197.041 62.9182 196.422 63.1477 195.907 63.6068C195.404 64.0659 195.115 64.7024 195.042 65.5163L200.488 65.5163Z" fill="white"/>
<path d="M205.291 63.2469C205.543 62.7565 205.9 62.3756 206.362 62.1043C206.834 61.833 207.406 61.6974 208.078 61.6974L208.078 63.1686L207.7 63.1686C206.094 63.1686 205.291 64.0346 205.291 65.7667L205.291 70.4308L203.859 70.4308L203.859 61.8539L205.291 61.8539L205.291 63.2469Z" fill="white"/>
<defs>
<clipPath id="clip0">
<rect width="65.6732" height="55.2687" fill="white" transform="translate(18.9397 22.7432)"/>
</clipPath>
</defs>
</svg>
