<svg width="144" height="60" viewBox="0 0 144 60" fill="none" xmlns="http://www.w3.org/2000/svg">
<path d="M7.25806 11.0074C7.25806 8.06495 9.64285 5.67963 12.5846 5.67963L50.2702 5.67963C53.212 5.67963 55.5968 8.06495 55.5968 11.0074L55.5968 48.7014C55.5968 51.6438 53.212 54.0292 50.2702 54.0292L12.5846 54.0292C9.64285 54.0292 7.25806 51.6438 7.25806 48.7014L7.25806 11.0074Z" fill="#1F1F21"/>
<g clip-path="url(#clip0)">
<path d="M41.6188 29.9272C41.6188 37.5278 38.0589 43.6893 33.6676 43.6893C29.2762 43.6893 25.7163 37.5278 25.7163 29.9272C25.7163 22.3266 29.2762 16.1651 33.6676 16.1651C38.0589 16.1651 41.6189 22.3266 41.6188 29.9272Z" fill="white"/>
<path d="M19.9672 29.9878C19.9672 26.1573 21.8708 22.7709 24.7847 20.7206C25.2413 20.3993 25.8389 20.7426 25.8389 21.2992L25.8389 38.6779C25.8389 39.2345 25.2413 39.5763 24.7847 39.255C21.8708 37.2047 19.9672 33.8183 19.9672 29.9878Z" fill="white"/>
<path d="M16.6643 29.9877C16.6643 28.507 17.3143 27.1743 18.3512 26.2469C18.7647 25.8769 19.3555 26.214 19.3555 26.7675L19.3555 33.2095C19.3555 33.763 18.7647 34.0985 18.3512 33.7286C17.3143 32.8011 16.6643 31.4685 16.6643 29.9877Z" fill="white"/>
<path d="M14.9518 29.9879C14.9518 29.5292 15.0751 29.1001 15.2896 28.7339C15.5733 28.2495 16.175 28.5537 16.175 29.1146L16.175 30.8619C16.175 31.4227 15.5733 31.7264 15.2896 31.2419C15.0751 30.8757 14.9518 30.4466 14.9518 29.9879Z" fill="white"/>
<path d="M47.6129 29.9882C47.6129 24.8997 45.0234 20.4166 41.0915 17.7868C40.6272 17.4763 40.0286 17.8206 40.0286 18.3775L40.0286 41.6044C40.0286 42.1614 40.6272 42.5001 41.0915 42.1895C45.0234 39.5597 47.6129 35.0766 47.6129 29.9882Z" fill="white"/>
</g>
<path d="M80.5808 17.2675L80.5808 30.2483L77.4097 30.2483L77.4097 22.4635L74.4982 30.2483L71.9391 30.2483L69.0091 22.445L69.0091 30.2483L65.8379 30.2483L65.8379 17.2675L69.5839 17.2675L73.2372 26.2542L76.8534 17.2675L80.5808 17.2675Z" fill="white"/>
<path d="M93.0793 19.9302L93.0793 30.2483L89.9082 30.2483L89.9082 28.8429C89.5867 29.299 89.1478 29.6689 88.5915 29.9524C88.0475 30.2236 87.4417 30.3592 86.7741 30.3592C85.9829 30.3592 85.2844 30.1866 84.6786 29.8414C84.0728 29.484 83.603 28.9724 83.2692 28.3067C82.9354 27.641 82.7685 26.8582 82.7685 25.9583L82.7685 19.9302L85.9211 19.9302L85.9211 25.533C85.9211 26.2234 86.1004 26.7596 86.4589 27.1417C86.8174 27.5239 87.2996 27.715 87.9054 27.715C88.5235 27.715 89.0118 27.5239 89.3704 27.1417C89.7289 26.7596 89.9082 26.2234 89.9082 25.533L89.9082 19.9302L93.0793 19.9302Z" fill="white"/>
<path d="M101.124 27.567L101.124 30.2483L99.5111 30.2483C98.3613 30.2483 97.465 29.9709 96.8221 29.4162C96.1792 28.8491 95.8578 27.9307 95.8578 26.661L95.8578 22.556L94.5967 22.556L94.5967 19.9302L95.8578 19.9302L95.8578 17.4154L99.0289 17.4154L99.0289 19.9302L101.106 19.9302L101.106 22.556L99.0289 22.556L99.0289 26.698C99.0289 27.0061 99.1031 27.228 99.2514 27.3636C99.3998 27.4992 99.647 27.567 99.9932 27.567L101.124 27.567Z" fill="white"/>
<path d="M112.645 24.9228C112.645 25.2187 112.627 25.5269 112.59 25.8474L105.413 25.8474C105.462 26.4884 105.666 26.9815 106.025 27.3267C106.396 27.6595 106.847 27.8259 107.379 27.8259C108.17 27.8259 108.72 27.4931 109.029 26.8274L112.404 26.8274C112.231 27.5054 111.916 28.1156 111.458 28.658C111.013 29.2004 110.451 29.6257 109.771 29.9339C109.091 30.2421 108.331 30.3962 107.49 30.3962C106.476 30.3962 105.574 30.1805 104.782 29.749C103.991 29.3175 103.373 28.7012 102.928 27.8999C102.483 27.0986 102.26 26.1617 102.26 25.0892C102.26 24.0168 102.477 23.0799 102.909 22.2786C103.354 21.4773 103.973 20.8609 104.764 20.4295C105.555 19.998 106.464 19.7823 107.49 19.7823C108.491 19.7823 109.381 19.9919 110.16 20.411C110.939 20.8301 111.545 21.428 111.978 22.2046C112.423 22.9813 112.645 23.8873 112.645 24.9228ZM109.4 24.0907C109.4 23.5483 109.214 23.1169 108.844 22.7963C108.473 22.4758 108.009 22.3156 107.453 22.3156C106.921 22.3156 106.47 22.4697 106.099 22.7779C105.74 23.086 105.518 23.5237 105.431 24.0907L109.4 24.0907Z" fill="white"/>
<path d="M119.843 18.8577C119.286 18.8577 118.829 18.6975 118.471 18.377C118.124 18.0441 117.951 17.6373 117.951 17.1566C117.951 16.6635 118.124 16.2567 118.471 15.9361C118.829 15.6033 119.286 15.4369 119.843 15.4369C120.387 15.4369 120.832 15.6033 121.178 15.9361C121.537 16.2567 121.716 16.6635 121.716 17.1566C121.716 17.6373 121.537 18.0441 121.178 18.377C120.832 18.6975 120.387 18.8577 119.843 18.8577ZM121.419 19.9302L121.419 30.2483L118.248 30.2483L118.248 19.9302L121.419 19.9302Z" fill="white"/>
<path d="M129.485 27.567L129.485 30.2483L127.871 30.2483C126.721 30.2483 125.825 29.9709 125.182 29.4162C124.539 28.8491 124.218 27.9307 124.218 26.661L124.218 22.556L122.957 22.556L122.957 19.9302L124.218 19.9302L124.218 17.4154L127.389 17.4154L127.389 19.9302L129.466 19.9302L129.466 22.556L127.389 22.556L127.389 26.698C127.389 27.0061 127.463 27.228 127.612 27.3636C127.76 27.4992 128.007 27.567 128.353 27.567L129.485 27.567Z" fill="white"/>
<path d="M67.5095 42.8313C67.0723 42.8313 66.6801 42.7586 66.3331 42.6133C65.9861 42.461 65.7119 42.2534 65.5106 41.9904C65.3094 41.7205 65.1983 41.4125 65.1775 41.0665L66.1561 41.0665C66.1839 41.3503 66.3158 41.5821 66.5517 41.762C66.7947 41.942 67.1105 42.0319 67.4991 42.0319C67.86 42.0319 68.1446 41.9524 68.3528 41.7932C68.5611 41.634 68.6652 41.4333 68.6652 41.1911C68.6652 40.9419 68.5541 40.7585 68.332 40.6409C68.1099 40.5163 67.7664 40.3952 67.3013 40.2776C66.8779 40.1668 66.5309 40.0561 66.2602 39.9454C65.9965 39.8277 65.7674 39.6582 65.5731 39.4367C65.3857 39.2083 65.292 38.9107 65.292 38.5439C65.292 38.2533 65.3788 37.9868 65.5523 37.7446C65.7258 37.5024 65.9722 37.3121 66.2915 37.1737C66.6107 37.0283 66.9751 36.9557 67.3846 36.9557C68.0162 36.9557 68.5264 37.1148 68.915 37.4332C69.3037 37.7515 69.5119 38.1875 69.5397 38.7412L68.5923 38.7412C68.5715 38.4436 68.45 38.2048 68.2279 38.0249C68.0127 37.845 67.7212 37.755 67.3534 37.755C67.0133 37.755 66.7426 37.8277 66.5413 37.973C66.34 38.1183 66.2394 38.3086 66.2394 38.5439C66.2394 38.7308 66.2984 38.8865 66.4164 39.0111C66.5413 39.1287 66.694 39.2256 66.8745 39.3017C67.0619 39.371 67.3187 39.4505 67.6449 39.5405C68.0544 39.6512 68.3875 39.762 68.6443 39.8727C68.9011 39.9765 69.1198 40.1357 69.3002 40.3502C69.4876 40.5648 69.5848 40.8451 69.5917 41.1911C69.5917 41.5025 69.505 41.7828 69.3315 42.0319C69.158 42.2811 68.9116 42.4783 68.5923 42.6237C68.28 42.7621 67.919 42.8313 67.5095 42.8313Z" fill="white"/>
<path d="M73.4174 42.8313C72.8829 42.8313 72.3971 42.7102 71.9598 42.4679C71.5295 42.2257 71.1894 41.8831 70.9396 41.4402C70.6966 40.9904 70.5752 40.4713 70.5752 39.8831C70.5752 39.3017 70.7001 38.7896 70.95 38.3467C71.2068 37.8969 71.5538 37.5543 71.9911 37.319C72.4283 37.0768 72.9176 36.9557 73.459 36.9557C74.0004 36.9557 74.4897 37.0768 74.927 37.319C75.3642 37.5543 75.7078 37.8934 75.9576 38.3363C76.2144 38.7792 76.3428 39.2948 76.3428 39.8831C76.3428 40.4713 76.211 40.9904 75.9472 41.4402C75.6904 41.8831 75.3399 42.2257 74.8957 42.4679C74.4515 42.7102 73.9587 42.8313 73.4174 42.8313ZM73.4174 42.0008C73.7575 42.0008 74.0767 41.9212 74.3752 41.762C74.6736 41.6029 74.9131 41.3641 75.0935 41.0457C75.2809 40.7274 75.3746 40.3398 75.3746 39.8831C75.3746 39.4263 75.2844 39.0388 75.1039 38.7204C74.9235 38.4021 74.6875 38.1668 74.396 38.0145C74.1045 37.8553 73.7887 37.7757 73.4486 37.7757C73.1016 37.7757 72.7823 37.8553 72.4908 38.0145C72.2062 38.1668 71.9772 38.4021 71.8037 38.7204C71.6301 39.0388 71.5434 39.4263 71.5434 39.8831C71.5434 40.3468 71.6267 40.7378 71.7933 41.0561C71.9668 41.3745 72.1958 41.6132 72.4804 41.7724C72.7649 41.9247 73.0773 42.0008 73.4174 42.0008Z" fill="white"/>
<path d="M82.6482 37.0491L82.6482 42.7378L81.7008 42.7378L81.7008 41.897C81.5204 42.1877 81.267 42.416 80.9408 42.5821C80.6216 42.7413 80.2676 42.8209 79.8789 42.8209C79.4347 42.8209 79.0356 42.7309 78.6817 42.551C78.3277 42.3641 78.0466 42.0873 77.8384 41.7205C77.6371 41.3537 77.5364 40.9073 77.5364 40.3814L77.5364 37.0491L78.4734 37.0491L78.4734 40.2568C78.4734 40.8174 78.6157 41.2499 78.9003 41.5544C79.1849 41.852 79.5735 42.0008 80.0663 42.0008C80.573 42.0008 80.9721 41.8451 81.2636 41.5337C81.5551 41.2222 81.7008 40.7689 81.7008 40.1737L81.7008 37.0491L82.6482 37.0491Z" fill="white"/>
<path d="M87.0276 36.9453C87.7217 36.9453 88.2838 37.1563 88.7142 37.5785C89.1445 37.9937 89.3597 38.5958 89.3597 39.3848L89.3597 42.7378L88.4227 42.7378L88.4227 39.5197C88.4227 38.9523 88.2804 38.5197 87.9958 38.2221C87.7112 37.9176 87.3226 37.7654 86.8298 37.7654C86.3301 37.7654 85.931 37.9211 85.6325 38.2325C85.341 38.5439 85.1953 38.9972 85.1953 39.5924L85.1953 42.7378L84.2479 42.7378L84.2479 37.0491L85.1953 37.0491L85.1953 37.8588C85.3827 37.5681 85.636 37.3432 85.9553 37.184C86.2815 37.0249 86.6389 36.9453 87.0276 36.9453Z" fill="white"/>
<path d="M90.5533 39.8727C90.5533 39.2914 90.6712 38.7827 90.9072 38.3467C91.1432 37.9038 91.4659 37.5612 91.8754 37.319C92.2919 37.0768 92.7569 36.9557 93.2705 36.9557C93.7147 36.9557 94.1277 37.0595 94.5094 37.2671C94.8912 37.4678 95.1827 37.7342 95.3839 38.0664L95.3839 35.0559L96.3417 35.0559L96.3417 42.7378L95.3839 42.7378L95.3839 41.6686C95.1965 42.0077 94.9189 42.288 94.5511 42.5095C94.1832 42.724 93.7529 42.8313 93.2601 42.8313C92.7534 42.8313 92.2919 42.7067 91.8754 42.4576C91.4659 42.2084 91.1432 41.8589 90.9072 41.4091C90.6712 40.9592 90.5533 40.4471 90.5533 39.8727ZM95.3839 39.8831C95.3839 39.454 95.2972 39.0803 95.1237 38.7619C94.9502 38.4436 94.7142 38.2014 94.4157 38.0353C94.1242 37.8623 93.8015 37.7757 93.4475 37.7757C93.0935 37.7757 92.7708 37.8588 92.4793 38.0249C92.1878 38.191 91.9553 38.4332 91.7817 38.7516C91.6082 39.0699 91.5215 39.4436 91.5215 39.8727C91.5215 40.3087 91.6082 40.6893 91.7817 41.0146C91.9553 41.333 92.1878 41.5786 92.4793 41.7517C92.7708 41.9178 93.0935 42.0008 93.4475 42.0008C93.8015 42.0008 94.1242 41.9178 94.4157 41.7517C94.7142 41.5786 94.9502 41.333 95.1237 41.0146C95.2972 40.6893 95.3839 40.3122 95.3839 39.8831Z" fill="white"/>
<path d="M103.55 36.9453C103.98 36.9453 104.369 37.0387 104.716 37.2256C105.063 37.4055 105.334 37.6789 105.528 38.0457C105.729 38.4124 105.83 38.8588 105.83 39.3848L105.83 42.7378L104.893 42.7378L104.893 39.5197C104.893 38.9523 104.751 38.5197 104.466 38.2221C104.182 37.9176 103.793 37.7654 103.3 37.7654C102.801 37.7654 102.401 37.9211 102.103 38.2325C101.811 38.5439 101.666 38.9972 101.666 39.5924L101.666 42.7378L100.718 42.7378L100.718 35.0559L101.666 35.0559L101.666 37.8588C101.853 37.5681 102.11 37.3432 102.436 37.184C102.769 37.0249 103.141 36.9453 103.55 36.9453Z" fill="white"/>
<path d="M112.583 39.6755C112.583 39.8554 112.573 40.0457 112.552 40.2464L107.992 40.2464C108.027 40.807 108.218 41.2464 108.565 41.5648C108.919 41.8762 109.345 42.0319 109.845 42.0319C110.255 42.0319 110.595 41.9385 110.865 41.7517C111.143 41.5579 111.337 41.3018 111.448 40.9835L112.469 40.9835C112.316 41.5302 112.011 41.9766 111.553 42.3226C111.094 42.6617 110.525 42.8313 109.845 42.8313C109.304 42.8313 108.818 42.7102 108.388 42.4679C107.964 42.2257 107.631 41.8831 107.388 41.4402C107.145 40.9904 107.024 40.4713 107.024 39.8831C107.024 39.2948 107.142 38.7792 107.378 38.3363C107.614 37.8934 107.943 37.5543 108.367 37.319C108.797 37.0768 109.29 36.9557 109.845 36.9557C110.386 36.9557 110.865 37.0733 111.282 37.3086C111.698 37.5439 112.018 37.8692 112.24 38.2844C112.469 38.6927 112.583 39.1564 112.583 39.6755ZM111.605 39.4782C111.605 39.1183 111.525 38.8104 111.365 38.5543C111.205 38.2913 110.987 38.0941 110.709 37.9626C110.439 37.8242 110.137 37.755 109.803 37.755C109.325 37.755 108.915 37.9072 108.575 38.2117C108.242 38.5163 108.051 38.9384 108.002 39.4782L111.605 39.4782Z" fill="white"/>
<path d="M114.781 35.0559L114.781 42.7378L113.834 42.7378L113.834 35.0559L114.781 35.0559Z" fill="white"/>
<path d="M117.343 38.0976C117.531 37.7723 117.808 37.5024 118.176 37.2878C118.551 37.0664 118.985 36.9557 119.477 36.9557C119.984 36.9557 120.442 37.0768 120.852 37.319C121.268 37.5612 121.594 37.9038 121.83 38.3467C122.066 38.7827 122.184 39.2914 122.184 39.8727C122.184 40.4471 122.066 40.9592 121.83 41.4091C121.594 41.8589 121.268 42.2084 120.852 42.4576C120.442 42.7067 119.984 42.8313 119.477 42.8313C118.992 42.8313 118.561 42.724 118.186 42.5095C117.819 42.288 117.538 42.0146 117.343 41.6894L117.343 45.4369L116.396 45.4369L116.396 37.0491L117.343 37.0491L117.343 38.0976ZM121.216 39.8727C121.216 39.4436 121.129 39.0699 120.956 38.7516C120.782 38.4332 120.546 38.191 120.248 38.0249C119.956 37.8588 119.634 37.7757 119.28 37.7757C118.933 37.7757 118.61 37.8623 118.311 38.0353C118.02 38.2014 117.784 38.4471 117.603 38.7723C117.43 39.0907 117.343 39.4609 117.343 39.8831C117.343 40.3122 117.43 40.6893 117.603 41.0146C117.784 41.333 118.02 41.5786 118.311 41.7517C118.61 41.9178 118.933 42.0008 119.28 42.0008C119.634 42.0008 119.956 41.9178 120.248 41.7517C120.546 41.5786 120.782 41.333 120.956 41.0146C121.129 40.6893 121.216 40.3087 121.216 39.8727Z" fill="white"/>
<path d="M128.637 39.6755C128.637 39.8554 128.626 40.0457 128.606 40.2464L124.046 40.2464C124.08 40.807 124.271 41.2464 124.618 41.5648C124.972 41.8762 125.399 42.0319 125.899 42.0319C126.308 42.0319 126.648 41.9385 126.919 41.7517C127.197 41.5579 127.391 41.3018 127.502 40.9835L128.522 40.9835C128.37 41.5302 128.064 41.9766 127.606 42.3226C127.148 42.6617 126.579 42.8313 125.899 42.8313C125.357 42.8313 124.872 42.7102 124.441 42.4679C124.018 42.2257 123.685 41.8831 123.442 41.4402C123.199 40.9904 123.077 40.4713 123.077 39.8831C123.077 39.2948 123.195 38.7792 123.431 38.3363C123.667 37.8934 123.997 37.5543 124.42 37.319C124.851 37.0768 125.343 36.9557 125.899 36.9557C126.44 36.9557 126.919 37.0733 127.335 37.3086C127.752 37.5439 128.071 37.8692 128.293 38.2844C128.522 38.6927 128.637 39.1564 128.637 39.6755ZM127.658 39.4782C127.658 39.1183 127.578 38.8104 127.419 38.5543C127.259 38.2913 127.04 38.0941 126.763 37.9626C126.492 37.8242 126.19 37.755 125.857 37.755C125.378 37.755 124.969 37.9072 124.629 38.2117C124.295 38.5163 124.105 38.9384 124.056 39.4782L127.658 39.4782Z" fill="white"/>
<path d="M130.835 37.973C131.001 37.6477 131.237 37.3951 131.543 37.2152C131.855 37.0352 132.233 36.9453 132.677 36.9453L132.677 37.9211L132.428 37.9211C131.366 37.9211 130.835 38.4955 130.835 39.6443L130.835 42.7378L129.887 42.7378L129.887 37.0491L130.835 37.0491L130.835 37.973Z" fill="white"/>
<defs>
<clipPath id="clip0">
<rect width="32.6613" height="27.5243" fill="white" transform="translate(14.9517 16.165)"/>
</clipPath>
</defs>
</svg>
